<?xml version="1.0" standalone="no"?>
<!DOCTYPE svg PUBLIC "-//W3C//DTD SVG 20010904//EN"
 "http://www.w3.org/TR/2001/REC-SVG-20010904/DTD/svg10.dtd">
<svg version="1.0" xmlns="http://www.w3.org/2000/svg"
 width="808.000000pt" height="808.000000pt" viewBox="0 0 808.000000 808.000000"
 preserveAspectRatio="xMidYMid meet">
<metadata>
Created by potrace 1.14, written by Peter Selinger 2001-2017
</metadata>
<g transform="translate(0.000000,808.000000) scale(0.100000,-0.100000)"
fill="#000000" stroke="none">
<path d="M2718 7589 c-8 -5 -13 -449 -8 -742 l0 -28 88 3 87 3 0 97 c0 53 4
100 7 104 4 3 56 8 115 9 205 4 308 59 353 187 18 52 21 129 6 178 -14 48 -19
60 -27 60 -5 0 -9 6 -9 14 0 35 -108 100 -185 112 -60 9 -413 12 -427 3z m405
-154 c20 -8 44 -27 53 -41 23 -34 24 -113 1 -147 -33 -51 -59 -60 -177 -62
-126 -2 -112 -19 -112 130 0 130 1 133 19 137 42 8 182 -3 216 -17z"/>
<path d="M3565 7575 c-2 -11 -3 -148 -2 -305 2 -157 -1 -293 -5 -302 -5 -9 -4
-19 0 -22 4 -2 7 -32 5 -65 l-2 -61 89 0 90 0 0 128 c1 461 0 635 -5 640 -3 3
-42 6 -86 6 -72 1 -80 -1 -84 -19z"/>
<path d="M4930 7590 c-5 -3 -24 -42 -43 -86 -19 -44 -46 -105 -60 -135 -14
-30 -61 -135 -105 -234 -44 -99 -91 -206 -106 -237 -30 -66 -34 -93 -11 -80 9
4 40 5 70 2 31 -3 58 -4 61 -1 3 3 11 6 17 6 6 0 24 34 41 75 16 41 31 77 33
80 2 2 85 5 185 5 l181 1 14 -36 c8 -19 21 -48 28 -65 7 -16 15 -38 19 -47 5
-16 19 -18 100 -18 l95 0 -18 43 c-10 23 -28 65 -41 92 -12 28 -28 64 -36 81
-15 34 -61 137 -92 204 -11 25 -51 113 -87 195 -37 83 -69 152 -71 154 -5 6
-165 7 -174 1z m110 -235 c28 -63 90 -218 90 -225 0 -4 -52 -7 -115 -7 -98 1
-114 3 -111 16 4 20 15 49 81 206 7 17 16 41 20 55 6 17 10 20 13 10 2 -8 13
-33 22 -55z"/>
<path d="M3898 7520 c-2 -41 1 -71 7 -73 6 -2 61 -3 123 -2 94 1 112 -2 113
-15 0 -8 1 -149 1 -312 1 -263 3 -297 17 -300 9 -2 50 -4 91 -3 l75 0 5 315 5
315 118 -1 c78 -1 117 3 118 10 0 6 1 38 2 71 l1 60 -336 3 -336 2 -4 -70z"/>
<path d="M1849 6778 c-30 -8 -129 -103 -562 -538 -290 -290 -532 -541 -538
-556 -6 -16 -8 -48 -4 -72 6 -40 35 -71 553 -590 462 -462 558 -554 617 -588
73 -42 198 -92 250 -101 17 -3 50 -9 75 -13 57 -11 219 -6 290 10 78 16 206
67 268 106 29 19 54 34 56 34 3 0 218 -214 480 -475 l475 -476 -1200 -1202
c-661 -661 -1207 -1214 -1215 -1229 -18 -34 -13 -98 9 -132 32 -49 105 -70
161 -47 17 7 561 543 1233 1215 l1204 1204 1252 -1252 c689 -688 1263 -1259
1277 -1267 31 -20 100 -18 135 5 55 36 76 111 47 164 -9 18 -581 596 -1270
1285 l-1253 1253 177 177 c113 113 181 174 188 169 6 -5 30 -16 54 -26 148
-57 332 -32 462 63 44 33 2042 2029 2063 2062 41 63 16 153 -51 185 -46 22
-69 23 -108 8 -18 -7 -429 -410 -1041 -1022 -645 -645 -1027 -1019 -1053
-1033 -124 -65 -282 7 -317 144 -9 35 -5 118 6 131 6 7 8 16 4 20 -4 3 460
473 1030 1044 615 615 1038 1046 1038 1057 6 75 -8 120 -48 149 -34 25 -103
32 -137 14 -42 -22 -2052 -2033 -2091 -2091 -79 -121 -102 -293 -55 -422 11
-33 23 -67 26 -76 4 -11 -48 -69 -167 -188 l-173 -172 -470 470 -470 470 24
43 c13 24 28 46 33 49 5 3 8 9 8 13 -1 3 5 19 12 34 17 33 54 140 62 178 51
248 -3 500 -148 694 -34 45 -1038 1058 -1089 1098 -27 21 -71 29 -109 20z m2
-277 c9 0 43 -28 75 -62 33 -33 285 -287 562 -563 323 -325 502 -511 503 -525
4 -66 2 -74 -31 -111 -27 -30 -36 -34 -83 -34 l-52 -1 -562 563 c-611 613
-593 592 -557 667 18 38 73 74 108 70 12 -1 28 -3 37 -4z m-288 -383 c38 -19
1086 -1081 1089 -1103 13 -79 -49 -148 -128 -143 -33 2 -79 46 -580 543 -299
298 -545 549 -545 558 -1 9 -2 23 -3 30 -3 19 16 70 34 89 32 35 94 47 133 26z
m199 -865 c319 -318 585 -589 592 -603 14 -27 12 -73 -5 -105 -20 -38 -61 -60
-110 -59 l-46 2 -581 581 c-539 539 -592 597 -597 646 -2 19 28 70 54 92 18
16 39 23 70 23 l44 0 579 -577z"/>
<path d="M698 3601 c-75 -52 -91 -124 -44 -196 39 -60 -23 -57 1147 -57 1020
0 1070 1 1100 19 18 10 41 30 52 46 39 51 19 143 -40 183 -27 18 -64 19 -1111
20 -952 0 -1085 -1 -1104 -15z"/>
<path d="M5190 3597 c-64 -41 -81 -133 -34 -194 14 -19 38 -39 52 -44 18 -7
385 -11 1058 -11 1130 0 1069 -3 1109 58 42 65 27 145 -35 185 l-39 26 -1040
0 c-1014 0 -1041 -1 -1071 -20z"/>
<path d="M2838 1361 c0 -3 -2 -178 -3 -389 l-1 -382 260 2 261 3 66 31 c38 18
75 44 87 61 22 30 44 106 37 127 -2 6 -6 25 -9 43 -5 42 -50 100 -94 122 -34
18 -35 19 -15 30 23 12 64 63 67 84 1 7 4 17 7 22 12 19 3 100 -14 135 -19 39
-65 74 -129 98 -34 12 -92 16 -280 17 -131 1 -239 0 -240 -4z m444 -146 c18
-7 48 -61 43 -79 -19 -73 -34 -80 -186 -84 l-126 -4 -1 91 -1 90 52 3 c60 3
194 -7 219 -17z m26 -311 c17 -7 38 -26 47 -43 19 -38 19 -34 0 -72 -25 -48
-66 -59 -214 -59 l-129 0 1 95 0 94 133 -1 c82 0 143 -6 162 -14z"/>
<path d="M3953 1312 c-13 -31 -38 -85 -54 -120 -16 -35 -29 -65 -29 -67 0 -2
-15 -36 -34 -77 -60 -127 -196 -438 -196 -446 0 -10 166 -9 177 1 4 5 20 41
34 80 l27 72 157 2 c86 1 159 3 161 6 3 2 14 2 27 0 17 -3 29 -22 51 -76 16
-40 32 -77 37 -82 5 -6 46 -10 96 -10 100 1 97 -5 52 93 -16 35 -29 65 -29 67
0 2 -15 36 -34 77 -19 40 -34 75 -33 78 0 3 -6 19 -15 35 -22 39 -75 155 -129
280 -65 152 -56 144 -156 144 l-85 0 -25 -57z m123 -158 c0 -5 12 -34 26 -64
14 -31 31 -73 38 -94 7 -21 18 -50 26 -64 8 -15 14 -30 14 -35 0 -4 -54 -7
-119 -6 l-120 1 11 26 c6 15 19 45 28 67 10 22 30 73 46 113 15 40 33 71 38
69 6 -2 11 -8 12 -13z"/>
<path d="M4644 1358 c-9 -14 -9 -182 0 -197 4 -6 4 -11 -1 -11 -4 0 -8 -86 -8
-190 0 -105 4 -190 8 -190 5 0 6 -4 3 -9 -12 -18 -10 -152 2 -160 6 -3 46 -6
89 -6 l78 0 3 108 3 107 82 0 82 0 38 -55 c20 -30 53 -79 73 -108 l36 -52 89
0 c54 0 90 4 93 11 2 6 -20 43 -50 83 -30 39 -54 76 -54 81 0 6 -4 10 -8 10
-8 0 -46 60 -40 64 1 1 19 12 38 24 134 81 155 294 41 408 -32 33 -98 68 -148
80 -51 12 -442 14 -449 2z m415 -158 c93 -47 90 -194 -4 -231 -16 -7 -76 -13
-132 -15 l-103 -3 0 134 c0 79 4 135 10 137 5 2 50 2 100 1 67 -2 100 -8 129
-23z"/>
</g>
</svg>
