<?xml version="1.0" encoding="UTF-8" standalone="no" ?>
<!DOCTYPE svg PUBLIC "-//W3C//DTD SVG 1.1//EN" "http://www.w3.org/Graphics/SVG/1.1/DTD/svg11.dtd">
<svg xmlns="http://www.w3.org/2000/svg" xmlns:xlink="http://www.w3.org/1999/xlink" version="1.1" width="98" height="101" viewBox="216 184 98 101" xml:space="preserve">
<desc>Created with Fabric.js 4.6.0</desc>
<defs>
</defs>
<g transform="matrix(1.52 0 0 1.52 268.05 238.5)" id="bGoP6i4LKW5W78HfOYrXZ"  >
<path style="stroke: none; stroke-width: 1; stroke-dasharray: none; stroke-linecap: butt; stroke-dashoffset: 0; stroke-linejoin: miter; stroke-miterlimit: 4; fill: rgb(0,0,0); fill-rule: nonzero; opacity: 1;" vector-effect="non-scaling-stroke"  transform=" translate(-54.68, -55.14)" d="M 78.1 35.9 C 77.89353512022657 35.69237154298554 77.61280936245629 35.57562877718661 77.32 35.57562877718661 C 77.0271906375437 35.57562877718661 76.74646487977341 35.69237154298554 76.53999999999999 35.9 L 60.21 52.23 C 59.48650697772166 52.95349302227834 58.313493022278344 52.95349302227834 57.59 52.23 C 56.86650697772166 51.506506977721656 56.86650697772166 50.33349302227834 57.59 49.61 L 73.92 33.28 C 74.35078210486802 32.84921789513198 74.35078210486802 32.15078210486802 73.92 31.72 C 73.48921789513199 31.289217895131983 72.79078210486801 31.289217895131983 72.36 31.720000000000002 L 56 48.05 C 54.72052735284127 49.336576448441335 54.447257242669956 51.31472575341279 55.33 52.9 L 31.26 77 C 30.829217895131983 77.43078210486802 30.829217895131983 78.12921789513199 31.26 78.56 C 31.69078210486802 78.99078210486802 32.38921789513198 78.99078210486802 32.82 78.56 L 56.92 54.46 C 58.50527424658721 55.34274275733004 60.483423551558666 55.069472647158726 61.77 53.79 L 78.1 37.46 C 78.30762845701446 37.25353512022658 78.42437122281338 36.97280936245629 78.42437122281338 36.68 C 78.42437122281338 36.38719063754371 78.30762845701446 36.10646487977342 78.1 35.9 Z" stroke-linecap="round" />
</g>
<g transform="matrix(1.52 0 0 1.52 261.35 238.46)" id="LFglx7lX2msKwwRjvIJjW"  >
<path style="stroke: none; stroke-width: 1; stroke-dasharray: none; stroke-linecap: butt; stroke-dashoffset: 0; stroke-linejoin: miter; stroke-miterlimit: 4; fill: rgb(0,0,0); fill-rule: nonzero; opacity: 1;" vector-effect="non-scaling-stroke"  transform=" translate(-50.29, -55.11)" d="M 34.32 30.78 L 26 39.13 C 25.79237154298554 39.33646487977342 25.67562877718661 39.617190637543715 25.67562877718661 39.910000000000004 C 25.67562877718661 40.20280936245629 25.792371542985542 40.483535120226584 26 40.690000000000005 L 34 48.75 C 36.43386537930011 51.19003008705465 40.281651127824574 51.495477246805216 43.07 49.47 L 73.07 79.47 C 73.48994829286856 79.84385226890942 74.12422822049413 79.8408396455041 74.54060629291146 79.4630150983106 C 74.95698436532881 79.0851905511171 75.0214186263384 78.45418474409419 74.69 78 L 44.69 48 C 46.715477246805214 45.21165112782458 46.41003008705465 41.36386537930011 43.97 38.93 L 35.91 30.869999999999997 C 35.7166725529953 30.638206856574495 35.435885380269724 30.496955379664374 35.13453408909006 30.479897759408924 C 34.83318279791039 30.46284013915347 34.53824949298171 30.571503664498255 34.32 30.78 Z M 38.54 47.540000000000006 C 38.90447040297282 47.750865058907024 39.09780345120751 48.16744856412094 39.02354796416956 48.58192277363921 C 38.94929247713161 48.99639698315747 38.623359461535564 49.31995092564697 38.20835238541991 49.391168019697254 C 37.79334530930425 49.46238511374754 37.3781893233624 49.26600540071008 37.17 48.900000000000006 L 28.44 40.17 C 28.07552959702718 39.959134941092984 27.882196548792496 39.54255143587906 27.95645203583045 39.1280772263608 C 28.0307075228684 38.71360301684254 28.356640538464443 38.390049074353044 28.771647614580097 38.31883198030276 C 29.186654690695754 38.24761488625248 29.60181067663761 38.44399459928993 29.810000000000002 38.81 Z M 41.31 44.77 C 41.50197047118277 45.14947786020086 41.43293332714628 45.60885978433847 41.137903798319314 45.91514998220463 C 40.84287426949234 46.2214401800708 40.386399183714445 46.307628204442786 40 46.13 L 31.22 37.4 C 30.963424335105735 37.00833656078042 31.01296250472064 36.4910805925235 31.339212504571922 36.155235004441295 C 31.665462504423207 35.819389416359094 32.18106564207463 35.75488227419479 32.58 36 Z M 44.09 42 C 44.31327214464433 42.39252162141713 44.2457739562856 42.88597464330872 43.925291819390495 43.204117494533065 C 43.604809682495386 43.5222603457574 43.110875416744946 43.586141730864696 42.720000000000006 43.36 L 34 34.62 C 33.63552959702718 34.40913494109298 33.44219654879249 33.992551435879065 33.51645203583044 33.5780772263608 C 33.59070752286839 33.163603016842536 33.916640538464435 32.84004907435303 34.33164761458009 32.76883198030275 C 34.74665469069575 32.69761488625247 35.1618106766376 32.893994599289925 35.37 33.26 Z" stroke-linecap="round" />
</g>
<g transform="matrix(1.52 0 0 1.52 252.68 195.52)" id="B-Rv7G9XhawpHvF1skoTM"  >
<path style="stroke: none; stroke-width: 1; stroke-dasharray: none; stroke-linecap: butt; stroke-dashoffset: 0; stroke-linejoin: miter; stroke-miterlimit: 4; fill: rgb(0,0,0); fill-rule: nonzero; opacity: 1;" vector-effect="non-scaling-stroke"  transform=" translate(-44.6, -26.94)" d="M 46.06 24 C 46.86465166087134 24.332839863549548 47.378624515583006 25.129697002637407 47.35 26 C 47.36669870593168 26.455526204898696 47.24464507337277 26.905381022044374 47 27.29 C 46.752052304684184 27.648701663671403 46.40438038548045 27.926839199034386 46 28.09 C 45.53410479634667 28.282211083831747 45.03393199920438 28.37748209281123 44.53 28.37 L 43.31 28.37 L 43.31 30.12 L 41.84 30.12 L 41.84 23.76 L 44.59 23.76 C 45.09147552625801 23.73484384794645 45.59256556525153 23.81665446655764 46.06 24 Z M 45.52 26.84 C 45.75220760313188 26.63689856483283 45.877675183364914 26.337990506042367 45.86000000000001 26.03 C 45.88405692550047 25.715171618855038 45.75801239739918 25.407474682607766 45.52 25.200000000000003 C 45.22842495298222 24.99520318273518 44.875528357752124 24.896392136070755 44.52 24.92 L 43.32 24.92 L 43.32 27.130000000000003 L 44.52 27.130000000000003 C 44.87203121240108 27.162380701932605 45.224622201732046 27.07423295459986 45.52 26.88 Z" stroke-linecap="round" />
</g>
<g transform="matrix(1.52 0 0 1.52 260.33 195.52)" id="q37YR98gaAaEYdyCNOeef"  >
<path style="stroke: none; stroke-width: 1; stroke-dasharray: none; stroke-linecap: butt; stroke-dashoffset: 0; stroke-linejoin: miter; stroke-miterlimit: 4; fill: rgb(0,0,0); fill-rule: nonzero; opacity: 1;" vector-effect="non-scaling-stroke"  transform=" translate(-49.62, -26.94)" d="M 48.88 23.76 L 50.35 23.76 L 50.35 30.12 L 48.88 30.12 Z" stroke-linecap="round" />
</g>
<g transform="matrix(1.52 0 0 1.52 267.66 195.58)" id="2QSq7rNBn_J35LeSIj_Gu"  >
<path style="stroke: none; stroke-width: 1; stroke-dasharray: none; stroke-linecap: butt; stroke-dashoffset: 0; stroke-linejoin: miter; stroke-miterlimit: 4; fill: rgb(0,0,0); fill-rule: nonzero; opacity: 1;" vector-effect="non-scaling-stroke"  transform=" translate(-54.43, -26.98)" d="M 53.66 25 L 51.66 25 L 51.66 23.8 L 57.199999999999996 23.8 L 57.199999999999996 25 L 55.199999999999996 25 L 55.199999999999996 30.16 L 53.66 30.16 Z" stroke-linecap="round" />
</g>
<g transform="matrix(1.52 0 0 1.52 277.46 195.52)" id="vaOOVsgQ0g5zoNg3oqMQW"  >
<path style="stroke: none; stroke-width: 1; stroke-dasharray: none; stroke-linecap: butt; stroke-dashoffset: 0; stroke-linejoin: miter; stroke-miterlimit: 4; fill: rgb(0,0,0); fill-rule: nonzero; opacity: 1;" vector-effect="non-scaling-stroke"  transform=" translate(-60.86, -26.94)" d="M 62.32 28.76 L 59.32 28.76 L 58.76 30.12 L 57.29 30.12 L 60.129999999999995 23.76 L 61.58 23.76 L 64.42999999999999 30.12 L 62.88 30.12 Z M 61.85 27.64 L 60.85 25.2 L 59.85 27.64 Z" stroke-linecap="round" />
</g>
<g transform="matrix(1.52 0 0 1.52 254.51 273.73)" id="cu5HPXSICOz2ZpgkkTZ6y"  >
<path style="stroke: none; stroke-width: 1; stroke-dasharray: none; stroke-linecap: butt; stroke-dashoffset: 0; stroke-linejoin: miter; stroke-miterlimit: 4; fill: rgb(0,0,0); fill-rule: nonzero; opacity: 1;" vector-effect="non-scaling-stroke"  transform=" translate(-45.79, -78.26)" d="M 48.4 78.7 C 48.61470427059836 78.98804681987524 48.72412477134496 79.34101617712234 48.71 79.7 C 48.739748470018036 80.21805278428391 48.492291309437945 80.71296710544408 48.06 81 C 47.485858768547885 81.33648062442037 46.82407032496576 81.4932199926372 46.160000000000004 81.45 L 42.87 81.45 L 42.87 75.07 L 46 75.07 C 46.62913014246464 75.02816798501689 47.255447760381585 75.18562213477256 47.79 75.52 C 48.18727488581261 75.78854847520833 48.42083273314722 76.24059592166242 48.41 76.72 C 48.4168405759708 77.01192906865528 48.34054100743551 77.29978653176568 48.19 77.55 C 48.03888043240486 77.79637910366154 47.820224551283694 77.99421061515211 47.559999999999995 78.11999999999999 C 47.89224031990119 78.22387763477091 48.1851425207022 78.42611963056208 48.4 78.7 Z M 44.339999999999996 76.18 L 44.339999999999996 77.68 L 45.8 77.68 C 46.08930520726873 77.69933778264051 46.37791820322729 77.63326974742108 46.629999999999995 77.49000000000001 C 46.81317022159167 77.35910909210412 46.91835874490944 77.14497531249295 46.91 76.92000000000002 C 46.91900694829305 76.70037378438003 46.81289139281551 76.49193251469201 46.629999999999995 76.37000000000002 C 46.37791820322729 76.22673025257895 46.08930520726873 76.16066221735952 45.8 76.18000000000002 Z M 46.92999999999999 80.13000000000001 C 47.13182855554045 80.00432524577928 47.24735468429777 79.77712385922322 47.22999999999999 79.54 C 47.22999999999999 79.02000000000001 46.83999999999999 78.75 46.04999999999999 78.75 L 44.34 78.75 L 44.34 80.32 L 46.050000000000004 80.32 C 46.35539315946771 80.34108243061648 46.66050980279228 80.27520497353504 46.93 80.13 Z" stroke-linecap="round" />
</g>
<g transform="matrix(1.52 0 0 1.52 265.54 273.7)" id="PnwVndKAVnqQ5_lVk2KAW"  >
<path style="stroke: none; stroke-width: 1; stroke-dasharray: none; stroke-linecap: butt; stroke-dashoffset: 0; stroke-linejoin: miter; stroke-miterlimit: 4; fill: rgb(0,0,0); fill-rule: nonzero; opacity: 1;" vector-effect="non-scaling-stroke"  transform=" translate(-53.04, -78.25)" d="M 54.5 80.07 L 51.5 80.07 L 51 81.43 L 49.47 81.43 L 52.31 75.07000000000001 L 53.760000000000005 75.07000000000001 L 56.61000000000001 81.43 L 55.06 81.43 Z M 54 79 L 53 76.57 L 52 79 Z" stroke-linecap="round" />
</g>
<g transform="matrix(1.52 0 0 1.52 277.04 273.7)" id="PVwi0DQa3-ETXxCgRIMTJ"  >
<path style="stroke: none; stroke-width: 1; stroke-dasharray: none; stroke-linecap: butt; stroke-dashoffset: 0; stroke-linejoin: miter; stroke-miterlimit: 4; fill: rgb(0,0,0); fill-rule: nonzero; opacity: 1;" vector-effect="non-scaling-stroke"  transform=" translate(-60.58, -78.25)" d="M 61.81 81.43 L 60.580000000000005 79.66000000000001 L 59.23 79.66000000000001 L 59.23 81.43 L 57.75 81.43 L 57.75 75.07 L 60.51 75.07 C 61.014354106138946 75.05751735033459 61.515550525240116 75.15298333492528 61.98 75.35 C 62.384983604009264 75.51212759147765 62.73292790011732 75.7904830283641 62.98 76.14999999999999 C 63.21292387212075 76.51715679691841 63.331283132681456 76.94533882777039 63.32 77.38 C 63.33298601340458 77.81173339162893 63.21440973871395 78.23721296551885 62.98 78.6 C 62.73279671411407 78.95706120358123 62.384581255355506 79.2321514160005 61.98 79.39 L 63.41 81.39 Z M 61.43 76.56 C 61.14082084681327 76.34939750084945 60.78698610452084 76.24678542558465 60.43 76.27 L 59.23 76.27 L 59.23 78.49 L 60.43 78.49 C 60.78698610452084 78.51321457441534 61.14082084681327 78.41060249915054 61.43 78.19999999999999 C 61.668801487914685 77.99667655733327 61.79837876728342 77.69309550281224 61.78 77.38 C 61.79837876728342 77.06690449718775 61.668801487914685 76.76332344266672 61.43 76.56 Z" stroke-linecap="round" />
</g>
<g transform="matrix(1.52 0 0 1.52 237.08 242.3)" id="Xye74SoZS9it2_i8toH7g"  >
<path style="stroke: none; stroke-width: 1; stroke-dasharray: none; stroke-linecap: butt; stroke-dashoffset: 0; stroke-linejoin: miter; stroke-miterlimit: 4; fill: rgb(0,0,0); fill-rule: nonzero; opacity: 1;" vector-effect="non-scaling-stroke"  transform=" translate(-34.35, -57.64)" d="M 43 58.74 L 25.71 58.74 C 25.140308283968107 58.68574378495203 24.705237825899243 58.207269506602174 24.705237825899243 57.635000000000005 C 24.705237825899243 57.06273049339783 25.140308283968107 56.58425621504797 25.71 56.53 L 43 56.53 C 43.56969171603189 56.58425621504797 44.004762174100755 57.06273049339783 44.004762174100755 57.635 C 44.00476217410076 58.207269506602174 43.56969171603189 58.68574378495203 43 58.74 Z" stroke-linecap="round" />
</g>
<g transform="matrix(1.52 0 0 1.52 293.12 242.3)" id="MeuHFxR2KC98pY1yh1Tcx"  >
<path style="stroke: none; stroke-width: 1; stroke-dasharray: none; stroke-linecap: butt; stroke-dashoffset: 0; stroke-linejoin: miter; stroke-miterlimit: 4; fill: rgb(0,0,0); fill-rule: nonzero; opacity: 1;" vector-effect="non-scaling-stroke"  transform=" translate(-71.13, -57.64)" d="M 79.48 58.74 L 63 58.74 C 62.58012313860073 58.779988170171094 62.173860293299484 58.5785550385374 61.95151851090021 58.220142197958765 C 61.72917672850094 57.86172935738013 61.72917672850094 57.408270642619875 61.951518510900215 57.04985780204124 C 62.173860293299484 56.6914449614626 62.58012313860073 56.49001182982891 63 56.53 L 79.48 56.53 C 80.0496917160319 56.58425621504797 80.48476217410077 57.06273049339783 80.48476217410077 57.635 C 80.48476217410077 58.207269506602174 80.0496917160319 58.68574378495203 79.48 58.74 Z" stroke-linecap="round" />
</g>
</svg>