<svg id="Слой_1" data-name="Слой 1" xmlns="http://www.w3.org/2000/svg" viewBox="0 0 105.19 105.19"><path d="M78.1,35.9a1.1,1.1,0,0,0-1.56,0L60.21,52.23a1.85,1.85,0,0,1-2.62-2.62L73.92,33.28a1.1,1.1,0,0,0-1.56-1.56L56,48.05a4.07,4.07,0,0,0-.67,4.85L31.26,77a1.1,1.1,0,1,0,1.56,1.56l24.1-24.1a4.07,4.07,0,0,0,4.85-.67L78.1,37.46A1.1,1.1,0,0,0,78.1,35.9Z"/><path d="M34.32,30.78,26,39.13a1.1,1.1,0,0,0,0,1.56L34,48.75a7,7,0,0,0,9.07.72l30,30A1.1,1.1,0,0,0,74.69,78l-30-30a7,7,0,0,0-.72-9.07l-8.06-8.06A1.09,1.09,0,0,0,34.32,30.78Zm4.22,16.76a1,1,0,1,1-1.37,1.36l-8.73-8.73a1,1,0,1,1,1.37-1.36Zm2.77-2.77A1,1,0,0,1,40,46.13L31.22,37.4A1,1,0,0,1,32.58,36ZM44.09,42a1,1,0,0,1-1.37,1.36L34,34.62a1,1,0,1,1,1.37-1.36Z"/><path d="M46.06,24a2.09,2.09,0,0,1,1.29,2A2.25,2.25,0,0,1,47,27.29a2.23,2.23,0,0,1-1,.8,3.71,3.71,0,0,1-1.47.28H43.31v1.75H41.84V23.76h2.75A3.54,3.54,0,0,1,46.06,24Zm-.54,2.84a1,1,0,0,0,.34-.81,1,1,0,0,0-.34-.83,1.56,1.56,0,0,0-1-.28h-1.2v2.21h1.2A1.56,1.56,0,0,0,45.52,26.88Z"/><path d="M48.88,23.76h1.47v6.36H48.88Z"/><path d="M53.66,25h-2v-1.2h5.54V25h-2v5.16H53.66Z"/><path d="M62.32,28.76h-3l-.56,1.36H57.29l2.84-6.36h1.45l2.85,6.36H62.88Zm-.47-1.12-1-2.44-1,2.44Z"/><path d="M48.4,78.7a1.57,1.57,0,0,1,.31,1A1.46,1.46,0,0,1,48.06,81a3.33,3.33,0,0,1-1.9.45H42.87V75.07H46a3,3,0,0,1,1.79.45,1.41,1.41,0,0,1,.62,1.2,1.54,1.54,0,0,1-.22.83,1.51,1.51,0,0,1-.63.57A1.72,1.72,0,0,1,48.4,78.7Zm-4.06-2.52v1.5H45.8a1.48,1.48,0,0,0,.83-.19.67.67,0,0,0,.28-.57.63.63,0,0,0-.28-.55,1.48,1.48,0,0,0-.83-.19Zm2.59,3.95a.64.64,0,0,0,.3-.59c0-.52-.39-.79-1.18-.79H44.34v1.57h1.71A1.62,1.62,0,0,0,46.93,80.13Z"/><path d="M54.5,80.07h-3L51,81.43H49.47l2.84-6.36h1.45l2.85,6.36H55.06ZM54,79l-1-2.43L52,79Z"/><path d="M61.81,81.43l-1.23-1.77H59.23v1.77H57.75V75.07h2.76a3.54,3.54,0,0,1,1.47.28,2.21,2.21,0,0,1,1,.8,2.19,2.19,0,0,1,.34,1.23,2.13,2.13,0,0,1-.34,1.22,2.18,2.18,0,0,1-1,.79l1.43,2Zm-.38-4.87a1.53,1.53,0,0,0-1-.29h-1.2v2.22h1.2a1.53,1.53,0,0,0,1-.29,1,1,0,0,0,.35-.82A1,1,0,0,0,61.43,76.56Z"/><path d="M43,58.74H25.71a1.11,1.11,0,0,1,0-2.21H43a1.11,1.11,0,0,1,0,2.21Z"/><path d="M79.48,58.74H63a1.11,1.11,0,1,1,0-2.21H79.48a1.11,1.11,0,0,1,0,2.21Z"/></svg>