<?xml version="1.0" encoding="UTF-8" standalone="no" ?>
<!DOCTYPE svg PUBLIC "-//W3C//DTD SVG 1.1//EN" "http://www.w3.org/Graphics/SVG/1.1/DTD/svg11.dtd">
<svg xmlns="http://www.w3.org/2000/svg" xmlns:xlink="http://www.w3.org/1999/xlink" version="1.1" width="100" height="100" viewBox="213 187 100 100" xml:space="preserve">
<desc>Created with Fabric.js 4.6.0</desc>
<defs>
</defs>
<g transform="matrix(1.44 0 0 1.44 230.78 232.95)" id="epKCuQ9A8EXrBGlZNfE6m"  >
<path style="stroke: none; stroke-width: 1; stroke-dasharray: none; stroke-linecap: butt; stroke-dashoffset: 0; stroke-linejoin: miter; stroke-miterlimit: 4; fill: rgb(255,221,0); fill-rule: nonzero; opacity: 1;" vector-effect="non-scaling-stroke"  transform=" translate(-29.8, -50.11)" d="M 29.48 53.6 C 29.273131137925155 53.6 29.07473508586396 53.517821664514976 28.928456710674492 53.37154328932551 C 28.782178335485025 53.22526491413604 28.7 53.02686886207484 28.7 52.82 C 28.697596968052036 50.93379134047328 28.91914759487498 49.05396784015741 29.36 47.220000000000006 C 29.424307806183467 46.948478151669796 29.628585851253 46.731889423472396 29.895884572681197 46.651820693123824 C 30.163183294109395 46.57175196277525 30.45289365743647 46.64036757514219 30.6558845726812 46.831820693123824 C 30.858875487925925 47.02327381110546 30.944307806183467 47.308478151669796 30.88 47.58 C 30.46779807271093 49.296173422034 30.25969051106694 51.05501797528323 30.259999999999998 52.82000000000001 C 30.259999999999998 53.250782104868016 29.91078210486802 53.6 29.48 53.6 Z" stroke-linecap="round" />
</g>
<g transform="matrix(1.44 0 0 1.44 263.53 213.57)" id="CqwwsOA8kaqNimr02uLHX"  >
<path style="stroke: none; stroke-width: 1; stroke-dasharray: none; stroke-linecap: butt; stroke-dashoffset: 0; stroke-linejoin: miter; stroke-miterlimit: 4; fill: rgb(255,221,0); fill-rule: nonzero; opacity: 1;" vector-effect="non-scaling-stroke"  transform=" translate(-52.58, -36.63)" d="M 31.44 44.26 C 31.33266651663558 44.260742534236 31.226599878188047 44.23679200297366 31.130000000000003 44.19 C 30.750996488694756 44.01698763768056 30.574868052033747 43.57666654602804 30.730000000000004 43.19 C 32.167954083219506 39.94061674114446 34.30949464050956 37.05107397963347 36.99999999999999 34.730000000000004 C 37.20373990736082 34.505652318279196 37.51898568849986 34.41962379513475 37.80844283342116 34.50938120930709 C 38.09789997834246 34.599138623479426 38.30916602578588 34.84843255946266 38.35023127983186 35.148691576071705 C 38.391296533877835 35.44895059268076 38.254726662978385 35.74581668990791 38 35.91 C 35.49923823959009 38.076818322899314 33.50550073566086 40.766998379570936 32.16 43.79 C 32.03174459806388 44.073286859202405 31.75094890894655 44.25658404515399 31.44 44.26 Z M 73.74 44.26 C 73.4311536546636 44.25771900208361 73.15274154897746 44.07341803071391 73.03 43.79 C 71.68444655929842 40.76437194402021 69.6868048629599 38.07353150519157 67.18 35.91 C 66.92527333702162 35.74581668990791 66.78870346612217 35.44895059268076 66.82976872016815 35.148691576071705 C 66.87083397421414 34.84843255946266 67.08210002165755 34.599138623479426 67.37155716657885 34.50938120930709 C 67.66101431150015 34.41962379513475 67.97626009263918 34.505652318279196 68.18 34.73 C 70.85896038059266 37.04754280577016 72.99600746346054 39.92538735985581 74.44000000000001 43.16 C 74.589760153644 43.546653219124636 74.41510440031091 43.98329260245731 74.04 44.16 C 73.94618627833825 44.20769779162484 73.84457721255697 44.23818051135922 73.74 44.25 Z M 40.85 33.68 C 40.576373501025486 33.67626197601123 40.32364178451512 33.53292159948296 40.18 33.3 C 40.074675338847676 33.121112632573144 40.04500493607109 32.907619536677494 40.09755821507101 32.706790934784934 C 40.150111494070934 32.50596233289237 40.280552553191264 32.33436756347442 40.46 32.23 C 43.508633826386856 30.418007317139956 46.92686681650396 29.31733629432225 50.45999999999999 29.009999999999998 C 50.8878360976167 28.980587816328367 51.262764635555335 29.293763418606524 51.31 29.72 C 51.32942209117985 29.927048582089217 51.265359926954986 30.133280564331795 51.13204416093202 30.292883946190276 C 50.99872839490906 30.452487328048754 50.80719829063702 30.55224608978134 50.6 30.57 C 47.30177466179472 30.860338410567245 44.110392191640955 31.885407726462454 41.260000000000005 33.56999999999999 C 41.13774902909213 33.64762029165884 40.99468646930775 33.686002929649774 40.85 33.68 Z M 64.33 33.68 C 64.18950508866976 33.67778285244989 64.05187278541635 33.6399339690552 63.93 33.57 C 61.08343149673559 31.8769135752564 57.89006315788154 30.851206400035604 54.59 30.569999999999993 C 54.15645647138283 30.531340067511845 53.83634006751185 30.148543528617175 53.875 29.715000000000003 C 53.91365993248815 29.281456471382832 54.296456471382825 28.961340067511845 54.73 29 C 58.26091269238357 29.311334606058097 61.67756519953747 30.408080060854502 64.72999999999999 32.21 C 65.02620979602274 32.39484406211342 65.16594844916807 32.75221301431882 65.07369004826708 33.08895617760743 C 64.9814316473661 33.42569934089603 64.67905965194052 33.66194208801351 64.32999999999998 33.67 Z" stroke-linecap="round" />
</g>
<g transform="matrix(1.44 0 0 1.44 296.31 232.95)" id="DjK-Gqe_3eG6aWWy-Tw0q"  >
<path style="stroke: none; stroke-width: 1; stroke-dasharray: none; stroke-linecap: butt; stroke-dashoffset: 0; stroke-linejoin: miter; stroke-miterlimit: 4; fill: rgb(255,221,0); fill-rule: nonzero; opacity: 1;" vector-effect="non-scaling-stroke"  transform=" translate(-75.39, -50.11)" d="M 75.71 53.6 C 75.50313113792515 53.6 75.30473508586395 53.517821664514976 75.15845671067449 53.37154328932551 C 75.01217833548502 53.22526491413604 74.92999999999999 53.02686886207484 74.92999999999999 52.82 C 74.93030948893305 51.05501797528323 74.72220192728905 49.296173422034 74.30999999999999 47.58 C 74.21058874503045 47.160263590128594 74.47026359012858 46.739411254969546 74.88999999999999 46.64 C 75.30973640987139 46.540588745030455 75.73058874503045 46.800263590128594 75.82999999999998 47.22 C 76.27085240512501 49.053967840157405 76.49240303194794 50.93379134047326 76.48999999999998 52.819999999999986 C 76.48999999999998 53.250782104868016 76.14078210486801 53.599999999999994 75.71 53.6 Z" stroke-linecap="round" />
</g>
<g transform="matrix(1.44 0 0 1.44 221.36 232.87)" id="kBUzLOYkV4esHo9QU8Q9i"  >
<path style="stroke: none; stroke-width: 1; stroke-dasharray: none; stroke-linecap: butt; stroke-dashoffset: 0; stroke-linejoin: miter; stroke-miterlimit: 4; fill: rgb(255,221,0); fill-rule: nonzero; opacity: 1;" vector-effect="non-scaling-stroke"  transform=" translate(-23.25, -50.05)" d="M 23 53.57 C 22.793131137925155 53.57 22.59473508586396 53.487821664514975 22.448456710674492 53.34154328932551 C 22.302178335485024 53.19526491413604 22.22 52.99686886207484 22.22 52.79 C 22.219213421393736 50.91832715968728 22.389927069101827 49.05051901417521 22.73 47.20999999999999 C 22.76694019150782 46.92261713299765 22.960137082283016 46.679392619977286 23.231706097866088 46.578378958671664 C 23.50327511344916 46.47736529736604 23.808458869725904 46.53521058450346 24.02422688264354 46.728595316570654 C 24.239994895561175 46.921980048637856 24.330786363704345 47.21903242053816 24.26 47.5 C 23.93939595632297 49.24505819649634 23.778729557429248 51.01573580097079 23.779999999999994 52.790000000000006 C 23.78 52.99686886207484 23.697821664514976 53.19526491413604 23.551543289325508 53.34154328932551 C 23.40526491413604 53.487821664514975 23.206868862074845 53.57 23 53.57 Z" stroke-linecap="round" />
</g>
<g transform="matrix(1.44 0 0 1.44 263.53 208.5)" id="GSk3VdjGf0YhrmE7gGOUc"  >
<path style="stroke: none; stroke-width: 1; stroke-dasharray: none; stroke-linecap: butt; stroke-dashoffset: 0; stroke-linejoin: miter; stroke-miterlimit: 4; fill: rgb(255,221,0); fill-rule: nonzero; opacity: 1;" vector-effect="non-scaling-stroke"  transform=" translate(-52.59, -33.1)" d="M 24.6 43.81 C 24.516942467604096 43.81958820347142 24.433057532395907 43.81958820347142 24.35 43.81 C 24.153019012808567 43.74202478617069 23.99142688207976 43.59805704398031 23.901254470878747 43.410197853978204 C 23.811082059677734 43.222338663976096 23.799827403717178 43.006208933896964 23.87 42.81 C 25.11166156740394 39.21441369880291 27.02186866601256 35.885971134442244 29.5 33 C 29.786008463425787 32.71305211066397 30.24408662009308 32.692842140022606 30.554254365906285 32.95348730457152 C 30.864422111719495 33.214132469120436 30.923404186494047 33.66884683593142 30.69 34 C 28.342726455516583 36.72829724967292 26.528018113105475 39.872661050448784 25.33999999999999 43.27000000000002 C 25.23887699113612 43.59311320150094 24.938560010615717 43.81226343052935 24.6 43.81 Z M 80.6 43.81 C 80.26869926075807 43.808981011966466 79.97322833509592 43.60135279393361 79.86 43.29 C 78.67039519931215 39.88307169123814 76.84851392842951 36.73125101963669 74.49 34 C 74.25659581350595 33.66884683593142 74.31557788828052 33.21413246912044 74.62574563409372 32.95348730457153 C 74.93591337990692 32.69284214002262 75.3939915365742 32.71305211066399 75.67999999999999 33 C 78.15404827320525 35.87558142399694 80.06708905047162 39.18948362149561 81.32 42.76999999999998 C 81.39346327064419 43.00469480722867 81.3504027873733 43.260362556653355 81.20411674805943 43.45804639356398 C 81.05783070874557 43.65573023047461 80.82591825945843 43.77164752504727 80.58 43.769999999999996 Z M 33.25 31.11 C 32.92424733651062 31.109918139074807 32.63284999089563 30.907406895355578 32.51920353304963 30.60212131251437 C 32.40555707520363 30.296835729673163 32.4935973262177 29.95307399377815 32.74 29.74 C 35.6146488181313 27.259789470553187 38.92846266688376 25.340016043333243 42.50999999999999 24.080000000000005 C 42.77747800862039 23.980716566876897 43.077820996404625 24.03539394763253 43.29314873614289 24.222572070519394 C 43.50847647588115 24.409750193406254 43.60442665722879 24.699558904415454 43.54334023823006 24.97825252580308 C 43.48225381923132 25.256946147190703 43.27387905847114 25.480050350099557 43 25.56 C 39.59994286099299 26.751436883038497 36.45501023959855 28.573258692843048 33.729999999999976 30.930000000000025 C 33.59484986292041 31.042366517201774 33.42571027897346 31.10579386118188 33.25 31.11 Z M 71.93 31.11 C 71.74397340829795 31.112743120364183 71.56309271121947 31.048902874336488 71.42 30.93 C 68.69249790475651 28.576758326015185 65.54826095404556 26.755339509907547 62.150000000000006 25.56 C 61.87910406949401 25.473446532648524 61.67678426729857 25.246317186338683 61.6220021520471 24.967256211417705 C 61.56722003679563 24.68819523649673 61.66865888912037 24.401435403963344 61.88672906036295 24.218893605217133 C 62.10479923160554 24.036351806470925 62.40493534425678 23.98696196745379 62.67000000000001 24.09 C 66.24998973616323 25.348719192796985 69.56344740398599 27.26489481441403 72.44000000000001 29.74 C 72.68640267378231 29.953073993778155 72.77444292479638 30.29683572967317 72.66079646695039 30.602121312514377 C 72.54715000910439 30.907406895355585 72.25575266348939 31.109918139074814 71.93 31.110000000000003 Z M 47.09 24.45 C 46.71365184746639 24.44731658836567 46.3914507599663 24.179513087066894 46.32 23.81 C 46.240723331730734 23.38767015248795 46.51795294214955 22.9807686275184 46.94 22.9 C 50.67125093164926 22.20505605500573 54.49874906835073 22.205056055005734 58.22999999999999 22.9 C 58.65525925736971 22.98008128872546 58.93508128872546 23.389740742630288 58.855 23.814999999999998 C 58.77491871127453 24.240259257369708 58.36525925736971 24.520081288725464 57.94 24.439999999999998 C 54.400510962209566 23.77992686742101 50.76948903779041 23.77992686742101 47.229999999999976 24.44 Z" stroke-linecap="round" />
</g>
<g transform="matrix(1.44 0 0 1.44 305.8 232.87)" id="ZsEKa5jGWsRmxN_hne4-A"  >
<path style="stroke: none; stroke-width: 1; stroke-dasharray: none; stroke-linecap: butt; stroke-dashoffset: 0; stroke-linejoin: miter; stroke-miterlimit: 4; fill: rgb(255,221,0); fill-rule: nonzero; opacity: 1;" vector-effect="non-scaling-stroke"  transform=" translate(-81.99, -50.05)" d="M 82.23 53.57 C 82.02313113792516 53.57 81.82473508586396 53.487821664514975 81.6784567106745 53.34154328932551 C 81.53217833548503 53.19526491413604 81.45 52.99686886207484 81.45 52.79 C 81.46116938414465 51.01665164097306 81.31054525554272 49.24598132918586 81 47.5 C 80.92921363629566 47.21903242053816 81.02000510443882 46.921980048637856 81.23577311735646 46.728595316570654 C 81.4515411302741 46.53521058450346 81.75672488655084 46.47736529736604 82.02829390213391 46.578378958671664 C 82.299862917717 46.679392619977286 82.49305980849218 46.92261713299765 82.53 47.21 C 82.85666112075458 49.05175462978511 83.01398463817164 50.91955298550247 83 52.78999999999999 C 83.00003508581592 53.21690688799581 82.65687180362168 53.564526836192584 82.23 53.57 Z" stroke-linecap="round" />
</g>
<g transform="matrix(1.44 0 0 1.44 263.54 242.87)" id="lY3h1P2ek7YdvDX16b-n1"  >
<path style="stroke: none; stroke-width: 1; stroke-dasharray: none; stroke-linecap: butt; stroke-dashoffset: 0; stroke-linejoin: miter; stroke-miterlimit: 4; fill: rgb(255,221,0); fill-rule: nonzero; opacity: 1;" vector-effect="non-scaling-stroke"  transform=" translate(-52.59, -57.01)" d="M 78.93 58.53 C 77.72945458413679 58.53137575830535 76.56600190406508 58.11408877882675 75.64 57.35 C 73.72511414103978 58.92350374336405 70.96488585896022 58.92350374336405 69.05 57.35 C 67.13831872210429 58.921950179354525 64.38168127789571 58.921950179354525 62.47 57.35 C 60.55831872210429 58.921950179354525 57.80168127789571 58.921950179354525 55.89 57.35 C 53.97511414103978 58.92350374336405 51.214885858960216 58.92350374336405 49.3 57.35 C 47.38831872210429 58.921950179354525 44.63168127789571 58.921950179354525 42.72 57.35 C 40.80831872210429 58.921950179354525 38.05168127789571 58.921950179354525 36.14 57.35 C 34.22831872210429 58.921950179354525 31.471681277895716 58.921950179354525 29.560000000000002 57.35 C 27.407037868838724 59.117872935559085 24.242376028974068 58.870702694230744 22.39 56.79 C 22.10226721085605 56.46613565435141 22.129033371931914 55.97096167444794 22.45 55.68 C 22.77836086513041 55.400256693097354 23.269383715606004 55.43122209808231 23.56 55.75 C 24.245237582729608 56.52534943861445 25.230245296340787 56.96937769607995 26.265 56.96937769607995 C 27.29975470365921 56.96937769607995 28.28476241727039 56.52534943861445 28.97 55.75 C 29.119739470616043 55.58500762279855 29.332189781215135 55.490919014539884 29.555 55.490919014539884 C 29.777810218784865 55.490919014539884 29.990260529383956 55.58500762279855 30.14 55.75 C 30.82523758272961 56.52534943861445 31.81024529634079 56.96937769607995 32.845 56.96937769607995 C 33.87975470365921 56.96937769607995 34.864762417270384 56.52534943861445 35.55 55.75 C 35.69916756082588 55.581203773945894 35.91476982688223 55.48619260585327 36.14 55.49 L 36.14 55.49 C 36.361752691859394 55.489105420201334 36.57312544974127 55.583858725458725 36.72 55.75 C 37.40707358644892 56.525800388493174 38.39369099396853 56.969937500813785 39.43 56.969937500813785 C 40.46630900603147 56.969937500813785 41.45292641355108 56.525800388493174 42.14 55.75 C 42.28687455025873 55.583858725458725 42.498247308140606 55.489105420201334 42.72 55.49 L 42.72 55.49 C 42.94469262024812 55.488817542126775 43.15925787369716 55.58337172161279 43.31 55.75 C 43.995237582729615 56.52534943861445 44.98024529634079 56.96937769607995 46.015 56.96937769607995 C 47.04975470365921 56.96937769607995 48.034762417270386 56.52534943861445 48.72 55.75 C 48.86687455025873 55.583858725458725 49.078247308140604 55.489105420201334 49.3 55.49 L 49.3 55.49 C 49.52523017311777 55.48619260585327 49.74083243917412 55.581203773945894 49.89 55.75 C 50.57523758272961 56.52534943861445 51.56024529634079 56.96937769607995 52.595 56.96937769607995 C 53.62975470365921 56.96937769607995 54.614762417270384 56.52534943861445 55.3 55.75 C 55.44916756082588 55.581203773945894 55.66476982688223 55.48619260585327 55.89 55.49 L 55.89 55.49 C 56.111752691859394 55.489105420201334 56.32312544974127 55.583858725458725 56.47 55.75 C 57.15707358644892 56.525800388493174 58.14369099396853 56.969937500813785 59.18 56.969937500813785 C 60.21630900603147 56.969937500813785 61.20292641355108 56.525800388493174 61.89 55.75 C 62.03792878448246 55.585488512115845 62.24876041284544 55.49153619241621 62.47 55.49153619241621 C 62.691239587154556 55.49153619241621 62.90207121551754 55.585488512115845 63.05 55.75 C 63.737073586448915 56.525800388493174 64.72369099396853 56.969937500813785 65.75999999999999 56.969937500813785 C 66.79630900603146 56.969937500813785 67.78292641355108 56.525800388493174 68.47 55.75 C 68.61973947061604 55.58500762279855 68.83218978121513 55.490919014539884 69.055 55.490919014539884 C 69.27781021878486 55.490919014539884 69.49026052938396 55.58500762279855 69.64 55.75 C 70.32523758272961 56.52534943861445 71.31024529634078 56.96937769607995 72.345 56.96937769607995 C 73.37975470365922 56.96937769607995 74.36476241727038 56.52534943861445 75.05 55.75 C 75.19973947061604 55.58500762279855 75.41218978121513 55.490919014539884 75.63499999999999 55.490919014539884 C 75.85781021878486 55.490919014539884 76.07026052938396 55.58500762279855 76.22 55.75 C 76.90523758272961 56.52534943861445 77.89024529634078 56.96937769607995 78.925 56.96937769607995 C 79.95975470365921 56.96937769607995 80.94476241727038 56.52534943861445 81.63 55.75 C 81.92061628439399 55.43122209808231 82.41163913486959 55.400256693097354 82.74 55.68 C 83.06096662806809 55.970961674447935 83.08773278914394 56.46613565435141 82.8 56.79 C 81.81918624307524 57.89810150463774 80.40982480210394 58.53176788895041 78.93 58.53 Z" stroke-linecap="round" />
</g>
<g transform="matrix(1.44 0 0 1.44 263.54 262.47)" id="WbPxJFyaKor9ke5TKdPU5"  >
<path style="stroke: none; stroke-width: 1; stroke-dasharray: none; stroke-linecap: butt; stroke-dashoffset: 0; stroke-linejoin: miter; stroke-miterlimit: 4; fill: rgb(255,221,0); fill-rule: nonzero; opacity: 1;" vector-effect="non-scaling-stroke"  transform=" translate(-52.6, -70.63)" d="M 52.6 72.13 C 51.40323178584858 72.14124781308382 50.23867512098232 71.74247537935689 49.3 71 C 48.78617381248328 71.42280096506714 48.195280697219125 71.74201908480754 47.559999999999995 71.94 C 47.14854786137605 72.06978691621023 46.709786916210234 71.84145213862394 46.58 71.43 C 46.45021308378976 71.01854786137606 46.67854786137605 70.57978691621024 47.089999999999996 70.45 C 47.7174261312606 70.25200205019884 48.28029734516123 69.88941629891316 48.72 69.4 C 48.86583158911527 69.23120564924844 49.07695329981122 69.13292485288997 49.3 69.13000000000001 L 49.3 69.13000000000001 C 49.526544356632314 69.13004922492378 49.74187484559162 69.22859029614244 49.89 69.4 C 50.57862130882334 70.16949101108698 51.56237435480751 70.60928213126768 52.595 70.60928213126768 C 53.62762564519249 70.60928213126768 54.61137869117666 70.16949101108696 55.3 69.4 C 55.44812515440838 69.22859029614244 55.66345564336768 69.13004922492378 55.89 69.13000000000001 L 55.89 69.13000000000001 C 56.113046700188775 69.13292485288997 56.32416841088473 69.23120564924844 56.47 69.4 C 56.91571911309064 69.87114673806863 57.47803867631502 70.21612806520015 58.1 70.4 C 58.30247821198005 70.46174449105983 58.471165393583526 70.60313233456093 58.56733862626574 70.79170730060449 C 58.66351185894795 70.98028226664803 58.678910600875334 71.19984721438392 58.61 71.4 C 58.550751331851515 71.6041717363374 58.40972520167792 71.7747623205366 58.22033831317363 71.87134963367379 C 58.03095142466934 71.96793694681098 57.81005813874075 71.9819252648239 57.61 71.91000000000001 C 56.98451349785498 71.71759824111895 56.40096483864276 71.40886028769853 55.89 71 C 54.95400460152129 71.74031661250791 53.79334645145007 72.13896211693967 52.6 72.13 Z" stroke-linecap="round" />
</g>
<g transform="matrix(1.44 0 0 1.44 263.6 257.61)" id="ULO-ni3uUoDlgMsCZuqDY"  >
<path style="stroke: none; stroke-width: 1; stroke-dasharray: none; stroke-linecap: butt; stroke-dashoffset: 0; stroke-linejoin: miter; stroke-miterlimit: 4; fill: rgb(255,221,0); fill-rule: nonzero; opacity: 1;" vector-effect="non-scaling-stroke"  transform=" translate(-52.64, -67.25)" d="M 52.6 68.73 C 51.39716990727529 68.72707974243674 50.23196297584877 68.31042999119937 49.300000000000004 67.55 C 47.388318722104295 69.12195017935453 44.63168127789572 69.12195017935453 42.720000000000006 67.55 C 42.386117914013084 67.8235252494741 42.02007374443074 68.0552412834299 41.63 68.24 C 41.24807011123215 68.36916317433072 40.83064383458921 68.18596857938894 40.667138042076964 67.8174317137264 C 40.50363224956472 67.44889484806389 40.647936764442015 67.01648166251805 41 66.82 C 41.43040779038619 66.62460662466921 41.817860435776545 66.34591261658142 42.14 66 C 42.28419039732614 65.82904648140287 42.49635765521608 65.73027896479894 42.72 65.73 L 42.72 65.73 C 42.94597468963996 65.73262637322962 43.160296919002676 65.83070603751426 43.31 66 C 43.995237582729615 66.77534943861446 44.98024529634079 67.21937769607995 46.015 67.21937769607995 C 47.04975470365921 67.21937769607995 48.034762417270386 66.77534943861446 48.72 66 C 48.86583158911527 65.83120564924843 49.07695329981122 65.73292485288997 49.3 65.73 L 49.3 65.73 C 49.526544356632314 65.73004922492377 49.74187484559162 65.82859029614244 49.89 66 C 50.57523758272961 66.77534943861446 51.56024529634079 67.21937769607995 52.595 67.21937769607995 C 53.62975470365921 67.21937769607995 54.614762417270384 66.77534943861446 55.3 66 C 55.44812515440838 65.82859029614244 55.66345564336768 65.73004922492377 55.89 65.73 L 55.89 65.73 C 56.113046700188775 65.73292485288997 56.32416841088473 65.83120564924843 56.47 66 C 57.15707358644892 66.77580038849318 58.14369099396853 67.21993750081378 59.18 67.21993750081378 C 60.21630900603147 67.21993750081378 61.20292641355108 66.77580038849317 61.89 66 C 62.03419039732614 65.82904648140287 62.24635765521608 65.73027896479894 62.47 65.73 L 62.47 65.73 C 62.69364234478392 65.73027896479894 62.905809602673855 65.82904648140287 63.05 66 C 63.37825494384618 66.36492994580766 63.7760182475731 66.66070265883538 64.22 66.87 C 64.61212217237986 67.05225396744416 64.78225396744416 67.51787782762014 64.6 67.91 C 64.41774603255584 68.30212217237987 63.952122172379866 68.47225396744416 63.56 68.29 C 63.17121234177591 68.10291421761531 62.80543519199532 67.8713672145432 62.47 67.60000000000001 C 60.55831872210429 69.17195017935454 57.80168127789571 69.17195017935454 55.89 67.60000000000001 C 54.95400460152129 68.34031661250792 53.79334645145007 68.73896211693967 52.6 68.73 Z" stroke-linecap="round" />
</g>
<g transform="matrix(1.44 0 0 1.44 263.54 262.47)" id="YnyZOfX658bZbwju5lazc"  >
<path style="stroke: none; stroke-width: 1; stroke-dasharray: none; stroke-linecap: butt; stroke-dashoffset: 0; stroke-linejoin: miter; stroke-miterlimit: 4; fill: rgb(255,221,0); fill-rule: nonzero; opacity: 1;" vector-effect="non-scaling-stroke"  transform=" translate(-52.6, -70.63)" d="M 52.6 72.13 C 51.40323178584858 72.14124781308382 50.23867512098232 71.74247537935689 49.3 71 C 48.78617381248328 71.42280096506714 48.195280697219125 71.74201908480754 47.559999999999995 71.94 C 47.14854786137605 72.06978691621023 46.709786916210234 71.84145213862394 46.58 71.43 C 46.45021308378976 71.01854786137606 46.67854786137605 70.57978691621024 47.089999999999996 70.45 C 47.7174261312606 70.25200205019884 48.28029734516123 69.88941629891316 48.72 69.4 C 48.86583158911527 69.23120564924844 49.07695329981122 69.13292485288997 49.3 69.13000000000001 L 49.3 69.13000000000001 C 49.526544356632314 69.13004922492378 49.74187484559162 69.22859029614244 49.89 69.4 C 50.57862130882334 70.16949101108698 51.56237435480751 70.60928213126768 52.595 70.60928213126768 C 53.62762564519249 70.60928213126768 54.61137869117666 70.16949101108696 55.3 69.4 C 55.44812515440838 69.22859029614244 55.66345564336768 69.13004922492378 55.89 69.13000000000001 L 55.89 69.13000000000001 C 56.113046700188775 69.13292485288997 56.32416841088473 69.23120564924844 56.47 69.4 C 56.91571911309064 69.87114673806863 57.47803867631502 70.21612806520015 58.1 70.4 C 58.30247821198005 70.46174449105983 58.471165393583526 70.60313233456093 58.56733862626574 70.79170730060449 C 58.66351185894795 70.98028226664803 58.678910600875334 71.19984721438392 58.61 71.4 C 58.550751331851515 71.6041717363374 58.40972520167792 71.7747623205366 58.22033831317363 71.87134963367379 C 58.03095142466934 71.96793694681098 57.81005813874075 71.9819252648239 57.61 71.91000000000001 C 56.98451349785498 71.71759824111895 56.40096483864276 71.40886028769853 55.89 71 C 54.95400460152129 71.74031661250791 53.79334645145007 72.13896211693967 52.6 72.13 Z" stroke-linecap="round" />
</g>
<g transform="matrix(1.44 0 0 1.44 263.54 247.77)" id="QcqASTCzZO_TzHDgEUmEZ"  >
<path style="stroke: none; stroke-width: 1; stroke-dasharray: none; stroke-linecap: butt; stroke-dashoffset: 0; stroke-linejoin: miter; stroke-miterlimit: 4; fill: rgb(255,221,0); fill-rule: nonzero; opacity: 1;" vector-effect="non-scaling-stroke"  transform=" translate(-52.6, -60.41)" d="M 65.76 61.93 C 64.55945458413679 61.93137575830535 63.39600190406509 61.514088778826746 62.470000000000006 60.75 C 60.558318722104296 62.32195017935452 57.801681277895725 62.32195017935452 55.89000000000001 60.75 C 53.97511414103979 62.32350374336405 51.21488585896023 62.32350374336405 49.30000000000001 60.75 C 47.3883187221043 62.32195017935452 44.63168127789572 62.32195017935452 42.72000000000001 60.75 C 40.88260663678132 62.26263459083 38.25090478576822 62.3286333833319 36.34000000000001 60.91 C 35.99206060760661 60.65318759132868 35.918187591328696 60.1629393923934 36.17500000000001 59.815 C 36.43181240867133 59.4670606076066 36.92206060760661 59.39318759132868 37.27000000000001 59.65 C 37.89211813663629 60.1193184792677 38.650714403130365 60.372183901432386 39.43000000000001 60.37 C 40.465219865944775 60.364896612456015 41.44985761575901 59.921627957558094 42.14000000000001 59.15 C 42.28687455025874 58.983858725458724 42.49824730814061 58.88910542020133 42.720000000000006 58.89 L 42.720000000000006 58.89 C 42.94469262024813 58.88881754212677 43.159257873697165 58.98337172161279 43.31000000000001 59.15 C 43.99523758272962 59.925349438614454 44.9802452963408 60.36937769607995 46.015000000000015 60.36937769607995 C 47.049754703659225 60.36937769607995 48.0347624172704 59.92534943861445 48.72000000000001 59.15 C 48.86687455025874 58.983858725458724 49.07824730814062 58.88910542020133 49.30000000000001 58.89 L 49.30000000000001 58.89 C 49.525230173117784 58.88619260585327 49.740832439174135 58.98120377394589 49.890000000000015 59.15 C 50.57523758272963 59.92534943861445 51.5602452963408 60.36937769607995 52.59500000000001 60.36937769607995 C 53.62975470365922 60.36937769607995 54.6147624172704 59.92534943861445 55.30000000000001 59.15 C 55.44973947061605 58.98500762279855 55.66218978121515 58.89091901453988 55.88500000000001 58.89091901453988 C 56.10781021878488 58.89091901453988 56.32026052938397 58.98500762279855 56.47000000000001 59.15 C 57.15707358644893 59.92580038849317 58.14369099396854 60.36993750081378 59.180000000000014 60.36993750081378 C 60.21630900603149 60.36993750081378 61.2029264135511 59.92580038849317 61.890000000000015 59.15 C 62.03523586716653 58.98164478338823 62.247684815781035 58.88640904780241 62.47000000000001 58.89 L 62.47000000000001 58.89 C 62.69231518421899 58.88640904780241 62.904764132833506 58.98164478338823 63.05000000000001 59.15 C 63.74014238424101 59.92162795755809 64.72478013405524 60.36489661245601 65.76 60.37 C 66.53928559686965 60.372183901432386 67.29788186336371 60.1193184792677 67.92 59.65 C 68.2679393923934 59.393187591328676 68.75818759132868 59.4670606076066 69.015 59.815 C 69.27181240867132 60.16293939239339 69.19793939239341 60.653187591328674 68.85000000000001 60.91 C 67.95935358403624 61.57894553233531 66.8738610351536 61.937263461092684 65.76 61.93 Z" stroke-linecap="round" />
</g>
<g transform="matrix(1.44 0 0 1.44 263.54 225.25)" id="oqp7FSbv_iGKFht-3LLmz"  >
<path style="stroke: none; stroke-width: 1; stroke-dasharray: none; stroke-linecap: butt; stroke-dashoffset: 0; stroke-linejoin: miter; stroke-miterlimit: 4; fill: rgb(255,221,0); fill-rule: nonzero; opacity: 1;" vector-effect="non-scaling-stroke"  transform=" translate(-52.59, -44.75)" d="M 69.09 53.57 C 68.88313113792516 53.57 68.68473508586396 53.487821664514975 68.5384567106745 53.34154328932551 C 68.39217833548503 53.19526491413604 68.31 52.99686886207484 68.31 52.79 C 68.09493995552765 44.26523566007766 61.12247664165315 37.46645302369894 52.595 37.46645302369894 C 44.067523358346854 37.46645302369894 37.095060044472355 44.265235660077664 36.88 52.790000000000006 C 36.88 53.22078210486802 36.530782104868024 53.57 36.1 53.57 C 35.66921789513198 53.57 35.32 53.22078210486802 35.32 52.79 C 35.545668453830906 43.41117443514287 43.21345986913279 35.925662122402244 52.595 35.925662122402244 C 61.97654013086722 35.925662122402244 69.6443315461691 43.41117443514287 69.87 52.78999999999999 C 69.87 52.99686886207484 69.78782166451498 53.19526491413604 69.64154328932551 53.34154328932551 C 69.49526491413604 53.487821664514975 69.29686886207485 53.57 69.09 53.57 Z" stroke-linecap="round" />
</g>
<g transform="matrix(1.44 0 0 1.44 263.54 252.65)" id="ZocPeUL-vk7D5ze1Dwwdu"  >
<path style="stroke: none; stroke-width: 1; stroke-dasharray: none; stroke-linecap: butt; stroke-dashoffset: 0; stroke-linejoin: miter; stroke-miterlimit: 4; fill: rgb(255,221,0); fill-rule: nonzero; opacity: 1;" vector-effect="non-scaling-stroke"  transform=" translate(-52.6, -63.81)" d="M 65.76 65.33 C 64.55945458413679 65.33137575830534 63.39600190406509 64.91408877882674 62.470000000000006 64.14999999999999 C 60.558318722104296 65.72195017935452 57.801681277895725 65.72195017935452 55.89000000000001 64.14999999999999 C 53.97511414103979 65.72350374336403 51.21488585896023 65.72350374336403 49.30000000000001 64.14999999999999 C 47.3883187221043 65.72195017935452 44.63168127789572 65.72195017935452 42.72000000000001 64.14999999999999 C 41.58508427732512 65.08657080309399 40.10430268695524 65.49405861174615 38.65000000000001 65.27 C 38.22197931888115 65.20648725376945 37.92648725376947 64.80802068111886 37.99000000000001 64.38 C 38.05351274623055 63.951979318881136 38.45197931888114 63.656487253769455 38.88000000000001 63.72 C 40.09520491578091 63.9127193145351 41.32467238488385 63.4714687197957 42.14000000000001 62.55 C 42.28583158911527 62.38120564924842 42.49695329981123 62.282924852889956 42.720000000000006 62.279999999999994 C 42.94597468963997 62.28262637322962 43.16029691900268 62.38070603751425 43.31000000000001 62.55 C 43.99523758272962 63.32534943861445 44.9802452963408 63.76937769607995 46.015000000000015 63.76937769607995 C 47.049754703659225 63.76937769607995 48.0347624172704 63.325349438614445 48.72000000000001 62.55 C 48.865831589115274 62.38120564924842 49.07695329981124 62.282924852889956 49.30000000000001 62.279999999999994 L 49.30000000000001 62.279999999999994 C 49.52654435663233 62.280049224923765 49.74187484559164 62.378590296142434 49.890000000000015 62.55 C 50.57523758272963 63.325349438614445 51.5602452963408 63.76937769607995 52.59500000000001 63.76937769607995 C 53.62975470365922 63.76937769607995 54.6147624172704 63.325349438614445 55.30000000000001 62.55 C 55.44628939840002 62.37907200112225 55.66001784763102 62.280674544989054 55.88500000000001 62.280674544989054 C 56.10998215236901 62.280674544989054 56.323710601600006 62.37907200112225 56.47000000000001 62.55 C 57.15707358644893 63.32580038849317 58.14369099396854 63.76993750081378 59.180000000000014 63.76993750081378 C 60.21630900603149 63.76993750081378 61.2029264135511 63.32580038849317 61.890000000000015 62.55 C 62.034402876155276 62.37946434828104 62.24653949085103 62.281121166312346 62.47000000000001 62.281121166312346 C 62.693460509149 62.281121166312346 62.90559712384475 62.37946434828104 63.05000000000001 62.55 C 63.74014238424101 63.321627957558086 64.72478013405524 63.764896612456006 65.76 63.769999999999996 C 65.94436199901108 63.767804541551 66.1282644264983 63.75108613905216 66.31 63.72 C 66.73802068111887 63.656487253769455 67.13648725376946 63.95197931888113 67.2 64.38 C 67.26351274623055 64.80802068111886 66.96802068111887 65.20648725376945 66.54 65.27 C 66.28191065683814 65.30986299462829 66.0211496912443 65.3299215304432 65.76 65.33 Z" stroke-linecap="round" />
</g>
<g transform="matrix(1.44 0 0 1.44 263.54 247.77)" id="Hy2IE4hnywDkw_3q-hLVD"  >
<path style="stroke: none; stroke-width: 1; stroke-dasharray: none; stroke-linecap: butt; stroke-dashoffset: 0; stroke-linejoin: miter; stroke-miterlimit: 4; fill: rgb(255,221,0); fill-rule: nonzero; opacity: 1;" vector-effect="non-scaling-stroke"  transform=" translate(-52.6, -60.41)" d="M 65.76 61.93 C 64.55945458413679 61.93137575830535 63.39600190406509 61.514088778826746 62.470000000000006 60.75 C 60.558318722104296 62.32195017935452 57.801681277895725 62.32195017935452 55.89000000000001 60.75 C 53.97511414103979 62.32350374336405 51.21488585896023 62.32350374336405 49.30000000000001 60.75 C 47.3883187221043 62.32195017935452 44.63168127789572 62.32195017935452 42.72000000000001 60.75 C 40.88260663678132 62.26263459083 38.25090478576822 62.3286333833319 36.34000000000001 60.91 C 35.99206060760661 60.65318759132868 35.918187591328696 60.1629393923934 36.17500000000001 59.815 C 36.43181240867133 59.4670606076066 36.92206060760661 59.39318759132868 37.27000000000001 59.65 C 37.89211813663629 60.1193184792677 38.650714403130365 60.372183901432386 39.43000000000001 60.37 C 40.465219865944775 60.364896612456015 41.44985761575901 59.921627957558094 42.14000000000001 59.15 C 42.28687455025874 58.983858725458724 42.49824730814061 58.88910542020133 42.720000000000006 58.89 L 42.720000000000006 58.89 C 42.94469262024813 58.88881754212677 43.159257873697165 58.98337172161279 43.31000000000001 59.15 C 43.99523758272962 59.925349438614454 44.9802452963408 60.36937769607995 46.015000000000015 60.36937769607995 C 47.049754703659225 60.36937769607995 48.0347624172704 59.92534943861445 48.72000000000001 59.15 C 48.86687455025874 58.983858725458724 49.07824730814062 58.88910542020133 49.30000000000001 58.89 L 49.30000000000001 58.89 C 49.525230173117784 58.88619260585327 49.740832439174135 58.98120377394589 49.890000000000015 59.15 C 50.57523758272963 59.92534943861445 51.5602452963408 60.36937769607995 52.59500000000001 60.36937769607995 C 53.62975470365922 60.36937769607995 54.6147624172704 59.92534943861445 55.30000000000001 59.15 C 55.44973947061605 58.98500762279855 55.66218978121515 58.89091901453988 55.88500000000001 58.89091901453988 C 56.10781021878488 58.89091901453988 56.32026052938397 58.98500762279855 56.47000000000001 59.15 C 57.15707358644893 59.92580038849317 58.14369099396854 60.36993750081378 59.180000000000014 60.36993750081378 C 60.21630900603149 60.36993750081378 61.2029264135511 59.92580038849317 61.890000000000015 59.15 C 62.03523586716653 58.98164478338823 62.247684815781035 58.88640904780241 62.47000000000001 58.89 L 62.47000000000001 58.89 C 62.69231518421899 58.88640904780241 62.904764132833506 58.98164478338823 63.05000000000001 59.15 C 63.74014238424101 59.92162795755809 64.72478013405524 60.36489661245601 65.76 60.37 C 66.53928559686965 60.372183901432386 67.29788186336371 60.1193184792677 67.92 59.65 C 68.2679393923934 59.393187591328676 68.75818759132868 59.4670606076066 69.015 59.815 C 69.27181240867132 60.16293939239339 69.19793939239341 60.653187591328674 68.85000000000001 60.91 C 67.95935358403624 61.57894553233531 66.8738610351536 61.937263461092684 65.76 61.93 Z" stroke-linecap="round" />
</g>
<g transform="matrix(1.44 0 0 1.44 263.6 257.61)" id="DuPn3JZUQGPgcBK8VR3_x"  >
<path style="stroke: none; stroke-width: 1; stroke-dasharray: none; stroke-linecap: butt; stroke-dashoffset: 0; stroke-linejoin: miter; stroke-miterlimit: 4; fill: rgb(255,221,0); fill-rule: nonzero; opacity: 1;" vector-effect="non-scaling-stroke"  transform=" translate(-52.64, -67.25)" d="M 52.6 68.73 C 51.39716990727529 68.72707974243674 50.23196297584877 68.31042999119937 49.300000000000004 67.55 C 47.388318722104295 69.12195017935453 44.63168127789572 69.12195017935453 42.720000000000006 67.55 C 42.386117914013084 67.8235252494741 42.02007374443074 68.0552412834299 41.63 68.24 C 41.24807011123215 68.36916317433072 40.83064383458921 68.18596857938894 40.667138042076964 67.8174317137264 C 40.50363224956472 67.44889484806389 40.647936764442015 67.01648166251805 41 66.82 C 41.43040779038619 66.62460662466921 41.817860435776545 66.34591261658142 42.14 66 C 42.28419039732614 65.82904648140287 42.49635765521608 65.73027896479894 42.72 65.73 L 42.72 65.73 C 42.94597468963996 65.73262637322962 43.160296919002676 65.83070603751426 43.31 66 C 43.995237582729615 66.77534943861446 44.98024529634079 67.21937769607995 46.015 67.21937769607995 C 47.04975470365921 67.21937769607995 48.034762417270386 66.77534943861446 48.72 66 C 48.86583158911527 65.83120564924843 49.07695329981122 65.73292485288997 49.3 65.73 L 49.3 65.73 C 49.526544356632314 65.73004922492377 49.74187484559162 65.82859029614244 49.89 66 C 50.57523758272961 66.77534943861446 51.56024529634079 67.21937769607995 52.595 67.21937769607995 C 53.62975470365921 67.21937769607995 54.614762417270384 66.77534943861446 55.3 66 C 55.44812515440838 65.82859029614244 55.66345564336768 65.73004922492377 55.89 65.73 L 55.89 65.73 C 56.113046700188775 65.73292485288997 56.32416841088473 65.83120564924843 56.47 66 C 57.15707358644892 66.77580038849318 58.14369099396853 67.21993750081378 59.18 67.21993750081378 C 60.21630900603147 67.21993750081378 61.20292641355108 66.77580038849317 61.89 66 C 62.03419039732614 65.82904648140287 62.24635765521608 65.73027896479894 62.47 65.73 L 62.47 65.73 C 62.69364234478392 65.73027896479894 62.905809602673855 65.82904648140287 63.05 66 C 63.37825494384618 66.36492994580766 63.7760182475731 66.66070265883538 64.22 66.87 C 64.61212217237986 67.05225396744416 64.78225396744416 67.51787782762014 64.6 67.91 C 64.41774603255584 68.30212217237987 63.952122172379866 68.47225396744416 63.56 68.29 C 63.17121234177591 68.10291421761531 62.80543519199532 67.8713672145432 62.47 67.60000000000001 C 60.55831872210429 69.17195017935454 57.80168127789571 69.17195017935454 55.89 67.60000000000001 C 54.95400460152129 68.34031661250792 53.79334645145007 68.73896211693967 52.6 68.73 Z" stroke-linecap="round" />
</g>
<g transform="matrix(1.44 0 0 1.44 263.54 252.65)" id="Qi-J1gG88NQ4-23IcCSI2"  >
<path style="stroke: none; stroke-width: 1; stroke-dasharray: none; stroke-linecap: butt; stroke-dashoffset: 0; stroke-linejoin: miter; stroke-miterlimit: 4; fill: rgb(255,221,0); fill-rule: nonzero; opacity: 1;" vector-effect="non-scaling-stroke"  transform=" translate(-52.6, -63.81)" d="M 65.76 65.33 C 64.55945458413679 65.33137575830534 63.39600190406509 64.91408877882674 62.470000000000006 64.14999999999999 C 60.558318722104296 65.72195017935452 57.801681277895725 65.72195017935452 55.89000000000001 64.14999999999999 C 53.97511414103979 65.72350374336403 51.21488585896023 65.72350374336403 49.30000000000001 64.14999999999999 C 47.3883187221043 65.72195017935452 44.63168127789572 65.72195017935452 42.72000000000001 64.14999999999999 C 41.58508427732512 65.08657080309399 40.10430268695524 65.49405861174615 38.65000000000001 65.27 C 38.22197931888115 65.20648725376945 37.92648725376947 64.80802068111886 37.99000000000001 64.38 C 38.05351274623055 63.951979318881136 38.45197931888114 63.656487253769455 38.88000000000001 63.72 C 40.09520491578091 63.9127193145351 41.32467238488385 63.4714687197957 42.14000000000001 62.55 C 42.28583158911527 62.38120564924842 42.49695329981123 62.282924852889956 42.720000000000006 62.279999999999994 C 42.94597468963997 62.28262637322962 43.16029691900268 62.38070603751425 43.31000000000001 62.55 C 43.99523758272962 63.32534943861445 44.9802452963408 63.76937769607995 46.015000000000015 63.76937769607995 C 47.049754703659225 63.76937769607995 48.0347624172704 63.325349438614445 48.72000000000001 62.55 C 48.865831589115274 62.38120564924842 49.07695329981124 62.282924852889956 49.30000000000001 62.279999999999994 L 49.30000000000001 62.279999999999994 C 49.52654435663233 62.280049224923765 49.74187484559164 62.378590296142434 49.890000000000015 62.55 C 50.57523758272963 63.325349438614445 51.5602452963408 63.76937769607995 52.59500000000001 63.76937769607995 C 53.62975470365922 63.76937769607995 54.6147624172704 63.325349438614445 55.30000000000001 62.55 C 55.44628939840002 62.37907200112225 55.66001784763102 62.280674544989054 55.88500000000001 62.280674544989054 C 56.10998215236901 62.280674544989054 56.323710601600006 62.37907200112225 56.47000000000001 62.55 C 57.15707358644893 63.32580038849317 58.14369099396854 63.76993750081378 59.180000000000014 63.76993750081378 C 60.21630900603149 63.76993750081378 61.2029264135511 63.32580038849317 61.890000000000015 62.55 C 62.034402876155276 62.37946434828104 62.24653949085103 62.281121166312346 62.47000000000001 62.281121166312346 C 62.693460509149 62.281121166312346 62.90559712384475 62.37946434828104 63.05000000000001 62.55 C 63.74014238424101 63.321627957558086 64.72478013405524 63.764896612456006 65.76 63.769999999999996 C 65.94436199901108 63.767804541551 66.1282644264983 63.75108613905216 66.31 63.72 C 66.73802068111887 63.656487253769455 67.13648725376946 63.95197931888113 67.2 64.38 C 67.26351274623055 64.80802068111886 66.96802068111887 65.20648725376945 66.54 65.27 C 66.28191065683814 65.30986299462829 66.0211496912443 65.3299215304432 65.76 65.33 Z" stroke-linecap="round" />
</g>
<g transform="matrix(1.44 0 0 1.44 225.1 275.32)" id="wBgVhjNlPjn2tKT203PVa"  >
<path style="stroke: none; stroke-width: 1; stroke-dasharray: none; stroke-linecap: butt; stroke-dashoffset: 0; stroke-linejoin: miter; stroke-miterlimit: 4; fill: rgb(255,221,0); fill-rule: nonzero; opacity: 1;" vector-effect="non-scaling-stroke"  transform=" translate(-25.85, -79.58)" d="M 24.33 82.63 C 23.921771768513075 82.53270318205789 23.532950052209276 82.36703132032844 23.18 82.14 L 23.759999999999998 80.84 C 24.068014263043068 81.04088826233847 24.40537146704244 81.19269900413818 24.759999999999998 81.29 C 25.11032939144454 81.39545473341494 25.474143518768336 81.44935312264809 25.839999999999996 81.45 C 26.509999999999998 81.45 26.839999999999996 81.29 26.839999999999996 80.95 C 26.83910380312766 80.77054230192826 26.721601989485638 80.61252262151314 26.549999999999997 80.56 C 26.25357577176322 80.43819841447763 25.945234600488046 80.3477069837773 25.629999999999992 80.29 C 25.223964124828754 80.22028108965492 24.823063712843556 80.12339682342517 24.43 80 C 24.11860236165906 79.88660679852191 23.84026241126053 79.69761053590562 23.62 79.45 C 23.395141020875098 79.1662140780569 23.2782107243072 78.81187984603295 23.290000000000003 78.45 C 23.28757029168197 78.09264948854523 23.395863944484425 77.74331512466635 23.6 77.45 C 23.828175332640342 77.1237870269988 24.14851080324002 76.87308970218166 24.520000000000003 76.73 C 24.98341608665895 76.50974928174737 25.487195242777254 76.38720840593481 25.999999999999996 76.37 C 26.407282677588427 76.37155673656166 26.813122430327173 76.41851340216779 27.21 76.51 C 27.561597326402563 76.59214234163697 27.898745148717484 76.72700147056294 28.21 76.91000000000001 L 27.67 78.21000000000001 C 27.1604474737855 77.91840010349327 26.58684444310423 77.7569669152177 26 77.74 C 25.737811838324934 77.72114917584912 25.475365206864566 77.77294785311103 25.24 77.89 C 25.09331393515652 77.96987432065866 25.0014486053607 78.12298320365169 25 78.29 C 25.0063466362111 78.46311871692615 25.123410976197274 78.61247666794299 25.29 78.66000000000001 C 25.583077785990596 78.77920590371964 25.888183666533465 78.86637901244617 26.2 78.92000000000002 C 26.596495545478728 79.0013121815399 26.987312465244422 79.10820227925359 27.369999999999997 79.24000000000001 C 27.679215881376752 79.35762080433916 27.956612901814097 79.54597680587068 28.179999999999996 79.79 C 28.40922663457947 80.07197392132463 28.529847408678144 80.4267409039678 28.519999999999996 80.79 C 28.51684075709477 81.1465011579996 28.40904669126695 81.49422395099255 28.209999999999997 81.79 C 27.972566638790035 82.1114033094248 27.650631079043542 82.36064374277692 27.279999999999998 82.51 C 26.800176821592956 82.70144095728395 26.28643292645531 82.7933024484675 25.769999999999996 82.78 C 25.285474058041004 82.7940242926016 24.801233560015355 82.74358257405727 24.33 82.63 Z" stroke-linecap="round" />
</g>
<g transform="matrix(1.44 0 0 1.44 234.47 275.45)" id="jWSK-GMajNm_uFCXZ615K"  >
<path style="stroke: none; stroke-width: 1; stroke-dasharray: none; stroke-linecap: butt; stroke-dashoffset: 0; stroke-linejoin: miter; stroke-miterlimit: 4; fill: rgb(255,221,0); fill-rule: nonzero; opacity: 1;" vector-effect="non-scaling-stroke"  transform=" translate(-32.37, -79.66)" d="M 30.22 82.06 C 29.683753912376712 81.48519799535174 29.408737869884117 80.71442934994487 29.459999999999997 79.93 L 29.459999999999997 76.5 L 31.209999999999997 76.5 L 31.209999999999997 79.88 C 31.209999999999997 80.88 31.599999999999998 81.36999999999999 32.39 81.36999999999999 C 33.18000000000001 81.36999999999999 33.56 80.86999999999999 33.56 79.88 L 33.56 76.5 L 35.28 76.5 L 35.28 79.93 C 35.33126213011588 80.71442934994487 35.05624608762329 81.48519799535174 34.52 82.06 C 33.93657131855095 82.59527912885447 33.16021612405332 82.8697116627234 32.370000000000005 82.82000000000001 C 31.579783875946685 82.8697116627234 30.80342868144905 82.59527912885447 30.22 82.06 Z" stroke-linecap="round" />
</g>
<g transform="matrix(1.44 0 0 1.44 244.84 275.35)" id="kvFLQNhc2tKdejbnwphN2"  >
<path style="stroke: none; stroke-width: 1; stroke-dasharray: none; stroke-linecap: butt; stroke-dashoffset: 0; stroke-linejoin: miter; stroke-miterlimit: 4; fill: rgb(255,221,0); fill-rule: nonzero; opacity: 1;" vector-effect="non-scaling-stroke"  transform=" translate(-39.59, -79.59)" d="M 42.53 76.5 L 42.53 82.69 L 41.09 82.69 L 38.35 79.39 L 38.35 82.69 L 36.64 82.69 L 36.64 76.5 L 38.08 76.5 L 40.82 79.8 L 40.82 76.5 Z" stroke-linecap="round" />
</g>
<g transform="matrix(1.44 0 0 1.44 255.35 275.35)" id="cPGfBSId88dM5HMzb1BHd"  >
<path style="stroke: none; stroke-width: 1; stroke-dasharray: none; stroke-linecap: butt; stroke-dashoffset: 0; stroke-linejoin: miter; stroke-miterlimit: 4; fill: rgb(255,221,0); fill-rule: nonzero; opacity: 1;" vector-effect="non-scaling-stroke"  transform=" translate(-46.89, -79.59)" d="M 49.84 76.5 L 49.84 82.69 L 48.39 82.69 L 45.660000000000004 79.39 L 45.660000000000004 82.69 L 43.94 82.69 L 43.94 76.5 L 45.379999999999995 76.5 L 48.12 79.8 L 48.12 76.5 Z" stroke-linecap="round" />
</g>
<g transform="matrix(1.44 0 0 1.44 265.12 275.35)" id="2ap9gA79n5rRFxUZQqT0A"  >
<path style="stroke: none; stroke-width: 1; stroke-dasharray: none; stroke-linecap: butt; stroke-dashoffset: 0; stroke-linejoin: miter; stroke-miterlimit: 4; fill: rgb(255,221,0); fill-rule: nonzero; opacity: 1;" vector-effect="non-scaling-stroke"  transform=" translate(-53.7, -79.59)" d="M 54.57 80.47 L 54.57 82.69 L 52.81 82.69 L 52.81 80.44 L 50.45 76.5 L 52.3 76.5 L 53.77 79 L 55.24 76.54 L 56.940000000000005 76.54 Z" stroke-linecap="round" />
</g>
<g transform="matrix(1.44 0 0 1.44 278.67 275.35)" id="NgrDxxxGlUdb5k0EA2Q8U"  >
<path style="stroke: none; stroke-width: 1; stroke-dasharray: none; stroke-linecap: butt; stroke-dashoffset: 0; stroke-linejoin: miter; stroke-miterlimit: 4; fill: rgb(255,221,0); fill-rule: nonzero; opacity: 1;" vector-effect="non-scaling-stroke"  transform=" translate(-63.11, -79.59)" d="M 64.59 76.77 C 64.99498360400926 76.93212759147765 65.34292790011732 77.2104830283641 65.59 77.57 C 65.8232561727402 77.93330495420975 65.94173085032752 78.35841997378776 65.93 78.78999999999999 C 65.92813981488624 79.22394057773168 65.7918949105271 79.64664912715361 65.54 80 C 65.2951018103027 80.35921757129802 64.9461455527111 80.63489301479538 64.54 80.79 C 64.07908998208752 80.98710378418778 63.581127829289514 81.08260337513535 63.080000000000005 81.07000000000001 L 62.05 81.07000000000001 L 62.05 82.69000000000001 L 60.29 82.69000000000001 L 60.29 76.5 L 63.129999999999995 76.5 C 63.630002254145104 76.48930471451496 64.12689159558533 76.58119520916487 64.59 76.77 Z M 63.84 79.46 C 64.18351853584174 79.07938089926627 64.18351853584174 78.50061910073372 63.84 78.11999999999999 C 63.604125818539096 77.94458687375645 63.313230209933735 77.85944669562805 63.02 77.88 L 62.02 77.88 L 62.02 79.69 L 63.02 79.69 C 63.31148897502302 79.7083715690062 63.60058504867281 79.6272836459093 63.84 79.46 Z" stroke-linecap="round" />
</g>
<g transform="matrix(1.44 0 0 1.44 285.37 275.35)" id="ke0zIv4D36kQ40277YLCO"  >
<path style="stroke: none; stroke-width: 1; stroke-dasharray: none; stroke-linecap: butt; stroke-dashoffset: 0; stroke-linejoin: miter; stroke-miterlimit: 4; fill: rgb(255,221,0); fill-rule: nonzero; opacity: 1;" vector-effect="non-scaling-stroke"  transform=" translate(-67.78, -79.59)" d="M 66.9 76.5 L 68.65 76.5 L 68.65 82.69 L 66.9 82.69 Z" stroke-linecap="round" />
</g>
<g transform="matrix(1.44 0 0 1.44 291.78 275.35)" id="y8dhh6PFsZaJ2RnezP1xG"  >
<path style="stroke: none; stroke-width: 1; stroke-dasharray: none; stroke-linecap: butt; stroke-dashoffset: 0; stroke-linejoin: miter; stroke-miterlimit: 4; fill: rgb(255,221,0); fill-rule: nonzero; opacity: 1;" vector-effect="non-scaling-stroke"  transform=" translate(-72.24, -79.59)" d="M 71.39 77.89 L 69.48 77.89 L 69.48 76.5 L 75 76.5 L 75 77.89 L 73.14 77.89 L 73.14 82.69 L 71.39 82.69 Z" stroke-linecap="round" />
</g>
<g transform="matrix(1.44 0 0 1.44 300.65 275.35)" id="lAiTiFINZCGVHptDY2umf"  >
<path style="stroke: none; stroke-width: 1; stroke-dasharray: none; stroke-linecap: butt; stroke-dashoffset: 0; stroke-linejoin: miter; stroke-miterlimit: 4; fill: rgb(255,221,0); fill-rule: nonzero; opacity: 1;" vector-effect="non-scaling-stroke"  transform=" translate(-78.4, -79.59)" d="M 79.7 81.49 L 77.08 81.49 L 76.59 82.69 L 74.8 82.69 L 77.53999999999999 76.5 L 79.27 76.5 L 82 82.69 L 80.19 82.69 Z M 79.19 80.19999999999999 L 78.39 78.19999999999999 L 77.59 80.19999999999999 Z" stroke-linecap="round" />
</g>
</svg>