<svg id="Слой_1" data-name="Слой 1" xmlns="http://www.w3.org/2000/svg" viewBox="0 0 262.64 105.19"><defs><style>.cls-1{fill:#e30613;}.cls-2{fill:#fd0;}</style></defs><path d="M150.36,35.9a1.1,1.1,0,0,0-1.56,0L132.47,52.23a1.85,1.85,0,1,1-2.62-2.62l16.33-16.33a1.1,1.1,0,0,0-1.56-1.56L128.29,48.05a4.05,4.05,0,0,0-.66,4.85L103.52,77a1.1,1.1,0,0,0,1.56,1.56l24.1-24.1a4.07,4.07,0,0,0,4.85-.67l16.33-16.33A1.1,1.1,0,0,0,150.36,35.9Z"/><path d="M106.58,30.78l-8.36,8.35a1.1,1.1,0,0,0,0,1.56l8.06,8.06a7,7,0,0,0,9.08.72l30,30A1.1,1.1,0,0,0,147,78l-30-30a7,7,0,0,0-.71-9.07l-8.06-8.06A1.1,1.1,0,0,0,106.58,30.78Zm4.22,16.76a1,1,0,1,1-1.36,1.36l-8.74-8.73a1,1,0,1,1,1.37-1.36Zm2.77-2.77a1,1,0,0,1-1.36,1.36l-8.73-8.73A1,1,0,1,1,104.84,36ZM116.35,42A1,1,0,0,1,115,43.35l-8.73-8.73a1,1,0,1,1,1.36-1.36Z"/><path d="M118.32,24a2.12,2.12,0,0,1,1,.8,2.38,2.38,0,0,1,0,2.45,2.12,2.12,0,0,1-1,.8,3.64,3.64,0,0,1-1.47.28h-1.28v1.75H114.1V23.76h2.75A3.47,3.47,0,0,1,118.32,24Zm-.54,2.84a1,1,0,0,0,.35-.81,1,1,0,0,0-.35-.83,1.56,1.56,0,0,0-1-.28h-1.2v2.21h1.2A1.56,1.56,0,0,0,117.78,26.88Z"/><path d="M121.14,23.76h1.48v6.36h-1.48Z"/><path d="M125.93,25h-2v-1.2h5.54V25h-2v5.16h-1.47Z"/><path d="M134.58,28.76h-3l-.57,1.36h-1.51l2.84-6.36h1.45l2.85,6.36h-1.55Zm-.46-1.12-1-2.44-1,2.44Z"/><path d="M120.66,78.7a1.57,1.57,0,0,1,.31,1,1.46,1.46,0,0,1-.65,1.28,3.3,3.3,0,0,1-1.89.45h-3.3V75.07h3.11a3,3,0,0,1,1.79.45,1.38,1.38,0,0,1,.62,1.2,1.52,1.52,0,0,1-.84,1.4A1.69,1.69,0,0,1,120.66,78.7Zm-4.06-2.52v1.5h1.46a1.46,1.46,0,0,0,.83-.19.64.64,0,0,0,.28-.57.61.61,0,0,0-.28-.55,1.46,1.46,0,0,0-.83-.19Zm2.59,3.95a.64.64,0,0,0,.3-.59c0-.52-.39-.79-1.17-.79H116.6v1.57h1.72A1.58,1.58,0,0,0,119.19,80.13Z"/><path d="M126.76,80.07h-3l-.57,1.36h-1.51l2.84-6.36H126l2.84,6.36h-1.54ZM126.3,79l-1-2.43-1,2.43Z"/><path d="M134.07,81.43l-1.23-1.77h-1.35v1.77H130V75.07h2.75a3.54,3.54,0,0,1,1.47.28,2.3,2.3,0,0,1,1,.8,2.26,2.26,0,0,1,.33,1.23,2.13,2.13,0,0,1-.34,1.22,2.15,2.15,0,0,1-1,.79l1.42,2Zm-.37-4.87a1.56,1.56,0,0,0-1-.29h-1.2v2.22h1.2a1.56,1.56,0,0,0,1-.29,1,1,0,0,0,.34-.82A1,1,0,0,0,133.7,76.56Z"/><path d="M115.3,58.74H98a1.11,1.11,0,0,1,0-2.21H115.3a1.11,1.11,0,0,1,0,2.21Z"/><path d="M151.74,58.74H135.25a1.11,1.11,0,0,1,0-2.21h16.49a1.11,1.11,0,1,1,0,2.21Z"/><path class="cls-1" d="M43.06,71.75a.84.84,0,0,1-.35-.07c-.34-.16-8.25-3.92-10.92-11.27a15.34,15.34,0,0,1,.88-12.07.82.82,0,0,1,.87-.46.83.83,0,0,1,.7.69,12.19,12.19,0,0,0,.56,2.29c0-.14,0-.27,0-.41,0-2.78,1.34-7.09,7.33-11.83,11.44-9,7.65-14.57,7.18-15.16a.83.83,0,0,1,1-1.25,27.5,27.5,0,0,1,8.79,7.7,20.46,20.46,0,0,1,3.5,17,5.12,5.12,0,0,0,2.7-5.54.83.83,0,0,1,.42-.92.81.81,0,0,1,1,.17c.26.28,6.38,7,5.66,15.79-.46,5.6-3.6,10.71-9.35,15.18a.83.83,0,0,1-1.29-.91C64,63.6,57.4,57.09,57.33,57c-.23-.22-5.17-5-4.78-9.79-2.34,1.93-5.47,6.65-4.11,14.18a.82.82,0,0,1-.33.82.8.8,0,0,1-.88,0,5.81,5.81,0,0,1-2.43-3.48c-1.22,1.86-2.89,5.79-.95,11.87a.83.83,0,0,1-.79,1.07ZM33.24,51.42c-1.48,4.79-.46,9.25,3,13.27a24.05,24.05,0,0,0,5.48,4.56c-1.86-8.41,2.72-12.71,2.93-12.9a.84.84,0,0,1,.86-.16.82.82,0,0,1,.52.69,8.76,8.76,0,0,0,.41,1.74c-.35-8.6,4.87-13.14,7.09-13.88a.83.83,0,0,1,1,1.12c-1.92,4.4,3.83,9.92,3.89,10,.28.27,6.08,5.94,5.37,12.94,4.21-3.78,6.54-8,6.91-12.49.46-5.48-2.11-10.22-3.8-12.7-.34,1.87-1.54,4.27-5.26,5.54a.83.83,0,0,1-.84-.18.81.81,0,0,1-.22-.82c3.59-12.6-4.58-20.12-8.84-23.07.66,2.95-.11,8.11-8.64,14.87C32.86,48.06,37.4,54.3,37.59,54.56a.82.82,0,0,1-1,1.25C36.48,55.76,34.44,54.77,33.24,51.42Z"/><path class="cls-1" d="M31.84,83.07,30.6,81.28H29.23v1.79H27.74V76.64h2.78a3.6,3.6,0,0,1,1.49.28,2.22,2.22,0,0,1,1,.81,2.4,2.4,0,0,1,0,2.48A2.12,2.12,0,0,1,32,81l1.44,2.07Zm-.38-4.93a1.57,1.57,0,0,0-1-.29H29.23v2.24h1.21a1.51,1.51,0,0,0,1-.29,1,1,0,0,0,.35-.83A1,1,0,0,0,31.46,78.14Z"/><path class="cls-1" d="M40,81.88v1.19H35V76.64h4.87v1.19H36.46v1.4h3v1.16h-3v1.49Z"/><path class="cls-1" d="M41.64,76.64h2.92a4.1,4.1,0,0,1,1.86.4,3,3,0,0,1,1.25,1.12,3.48,3.48,0,0,1,0,3.39,3,3,0,0,1-1.25,1.12,4.1,4.1,0,0,1-1.86.4H41.64Zm2.85,5.21A2.16,2.16,0,0,0,46,81.31a2.14,2.14,0,0,0,0-2.91,2.16,2.16,0,0,0-1.54-.54H43.13v4Z"/><path class="cls-1" d="M57.08,76.92a2.22,2.22,0,0,1,1,.81A2.2,2.2,0,0,1,58.39,79a2.13,2.13,0,0,1-1.31,2,3.6,3.6,0,0,1-1.49.28H54.3v1.77H52.81V76.64h2.78A3.6,3.6,0,0,1,57.08,76.92Zm-.55,2.88a1,1,0,0,0,.35-.83,1,1,0,0,0-.35-.83,1.57,1.57,0,0,0-1-.29H54.3v2.23h1.21A1.57,1.57,0,0,0,56.53,79.8Z"/><path class="cls-1" d="M59.93,76.64h1.49v6.43H59.93Z"/><path class="cls-1" d="M64.77,77.85H62.71V76.64h5.61v1.21H66.26v5.22H64.77Z"/><path class="cls-1" d="M73.52,81.69h-3L70,83.07H68.44l2.87-6.43h1.47l2.88,6.43H74.09Zm-.47-1.13L72,78.1l-1,2.46Z"/><path class="cls-2" d="M181.36,53.6a.78.78,0,0,1-.78-.78,24.37,24.37,0,0,1,.66-5.6.79.79,0,0,1,.95-.58.77.77,0,0,1,.57.94,22.41,22.41,0,0,0-.61,5.24A.78.78,0,0,1,181.36,53.6Z"/><path class="cls-2" d="M183.33,44.26a.74.74,0,0,1-.32-.07.78.78,0,0,1-.39-1,24,24,0,0,1,6.25-8.43.77.77,0,0,1,1.1.08.79.79,0,0,1-.08,1.1A22.47,22.47,0,0,0,184,43.79.78.78,0,0,1,183.33,44.26Zm42.3,0a.8.8,0,0,1-.72-.47,22.47,22.47,0,0,0-5.85-7.88.78.78,0,1,1,1-1.18,24,24,0,0,1,6.25,8.43.78.78,0,0,1-.4,1A.87.87,0,0,1,225.63,44.25ZM192.74,33.68a.78.78,0,0,1-.4-1.45,23.61,23.61,0,0,1,10-3.22.78.78,0,0,1,.13,1.56,22.19,22.19,0,0,0-9.33,3A.76.76,0,0,1,192.74,33.68Zm23.47,0a.79.79,0,0,1-.39-.11,22,22,0,0,0-9.35-3,.78.78,0,0,1,.14-1.56,23.74,23.74,0,0,1,10,3.21.78.78,0,0,1-.4,1.46Z"/><path class="cls-2" d="M227.6,53.6a.77.77,0,0,1-.78-.78,22.42,22.42,0,0,0-.62-5.24.78.78,0,1,1,1.52-.36,23.83,23.83,0,0,1,.66,5.6A.78.78,0,0,1,227.6,53.6Z"/><path class="cls-2" d="M174.84,53.57a.78.78,0,0,1-.78-.78,30.64,30.64,0,0,1,.51-5.58.8.8,0,0,1,.91-.63.79.79,0,0,1,.63.92,29.17,29.17,0,0,0-.49,5.29A.78.78,0,0,1,174.84,53.57Z"/><path class="cls-2" d="M176.49,43.81a1.17,1.17,0,0,1-.26,0,.79.79,0,0,1-.48-1A30.21,30.21,0,0,1,181.39,33a.78.78,0,0,1,1.18,1,28.58,28.58,0,0,0-5.34,9.27A.79.79,0,0,1,176.49,43.81Zm56,0a.77.77,0,0,1-.74-.52A28.68,28.68,0,0,0,226.38,34a.79.79,0,0,1,.08-1.1.78.78,0,0,1,1.1.08,30.16,30.16,0,0,1,5.64,9.77.78.78,0,0,1-.48,1A.73.73,0,0,1,232.47,43.79ZM185.14,31.11a.76.76,0,0,1-.59-.27.78.78,0,0,1,.08-1.1,30.29,30.29,0,0,1,9.77-5.66.78.78,0,0,1,.51,1.48,28.51,28.51,0,0,0-9.26,5.37A.81.81,0,0,1,185.14,31.11Zm38.67,0a.81.81,0,0,1-.51-.18A28.63,28.63,0,0,0,214,25.55a.78.78,0,0,1,.52-1.47,30.27,30.27,0,0,1,9.77,5.65.78.78,0,0,1,.08,1.1A.76.76,0,0,1,223.81,31.1ZM199,24.45a.78.78,0,0,1-.14-1.55,30.77,30.77,0,0,1,11.28,0,.78.78,0,0,1-.28,1.54,29.21,29.21,0,0,0-10.71,0Z"/><path class="cls-2" d="M234.12,53.57a.78.78,0,0,1-.78-.78,29.17,29.17,0,0,0-.49-5.29.79.79,0,0,1,.63-.92.8.8,0,0,1,.91.63,30.64,30.64,0,0,1,.51,5.58A.78.78,0,0,1,234.12,53.57Z"/><path class="cls-2" d="M230.81,58.53a5.16,5.16,0,0,1-3.29-1.18,5.18,5.18,0,0,1-6.58,0,5.19,5.19,0,0,1-6.59,0,5.18,5.18,0,0,1-6.58,0,5.18,5.18,0,0,1-6.58,0,5.18,5.18,0,0,1-6.58,0,5.19,5.19,0,0,1-6.59,0,5.18,5.18,0,0,1-6.58,0,5.19,5.19,0,0,1-7.17-.56.8.8,0,0,1,.07-1.11.79.79,0,0,1,1.1.07,3.62,3.62,0,0,0,5.42,0,.78.78,0,0,1,1.16,0,3.62,3.62,0,0,0,5.42,0,.77.77,0,0,1,.58-.26h0a.77.77,0,0,1,.59.26,3.61,3.61,0,0,0,5.41,0,.77.77,0,0,1,.59-.26h0a.77.77,0,0,1,.58.26,3.61,3.61,0,0,0,5.41,0,.79.79,0,0,1,.59-.26h0a.75.75,0,0,1,.58.26,3.62,3.62,0,0,0,5.42,0,.77.77,0,0,1,.58-.26h0a.77.77,0,0,1,.59.26,3.61,3.61,0,0,0,5.41,0,.79.79,0,0,1,1.17,0,3.61,3.61,0,0,0,5.41,0,.79.79,0,0,1,1.17,0,3.62,3.62,0,0,0,5.42,0,.75.75,0,0,1,.58-.26.79.79,0,0,1,.59.26,3.61,3.61,0,0,0,5.41,0,.79.79,0,0,1,1.1-.07.8.8,0,0,1,.07,1.11A5.18,5.18,0,0,1,230.81,58.53Z"/><path class="cls-2" d="M204.48,72.13A5.22,5.22,0,0,1,201.19,71a5.3,5.3,0,0,1-1.75.94A.78.78,0,1,1,199,70.4a3.65,3.65,0,0,0,1.62-1.05.8.8,0,0,1,.59-.27h0a.76.76,0,0,1,.58.27,3.64,3.64,0,0,0,5.42,0,.78.78,0,0,1,.58-.27h0a.78.78,0,0,1,.59.27A3.62,3.62,0,0,0,210,70.4a.78.78,0,1,1-.47,1.49,5.3,5.3,0,0,1-1.75-.94A5.22,5.22,0,0,1,204.48,72.13Z"/><path class="cls-2" d="M204.48,68.73a5.22,5.22,0,0,1-3.29-1.18,5.18,5.18,0,0,1-6.58,0,5.58,5.58,0,0,1-1.09.69.79.79,0,0,1-1-.38.78.78,0,0,1,.37-1A3.58,3.58,0,0,0,194,66a.78.78,0,0,1,.59-.27h0a.78.78,0,0,1,.58.27,3.61,3.61,0,0,0,5.41,0,.8.8,0,0,1,.59-.27h0a.76.76,0,0,1,.58.27,3.62,3.62,0,0,0,5.42,0,.78.78,0,0,1,.58-.27h0a.78.78,0,0,1,.59.27,3.61,3.61,0,0,0,5.41,0,.78.78,0,0,1,.59-.27h0a.78.78,0,0,1,.58.27,3.58,3.58,0,0,0,1.17.87.78.78,0,0,1,.37,1,.79.79,0,0,1-1,.38,5.9,5.9,0,0,1-1.09-.69,5.18,5.18,0,0,1-6.58,0A5.22,5.22,0,0,1,204.48,68.73Z"/><path class="cls-2" d="M204.48,72.13A5.22,5.22,0,0,1,201.19,71a5.3,5.3,0,0,1-1.75.94A.78.78,0,1,1,199,70.4a3.65,3.65,0,0,0,1.62-1.05.8.8,0,0,1,.59-.27h0a.76.76,0,0,1,.58.27,3.64,3.64,0,0,0,5.42,0,.78.78,0,0,1,.58-.27h0a.78.78,0,0,1,.59.27A3.62,3.62,0,0,0,210,70.4a.78.78,0,1,1-.47,1.49,5.3,5.3,0,0,1-1.75-.94A5.22,5.22,0,0,1,204.48,72.13Z"/><path class="cls-2" d="M217.65,61.93a5.21,5.21,0,0,1-3.3-1.18,5.18,5.18,0,0,1-6.58,0,5.18,5.18,0,0,1-6.58,0,5.18,5.18,0,0,1-6.58,0,5.2,5.2,0,0,1-6.39.16.79.79,0,0,1-.16-1.1.8.8,0,0,1,1.1-.16,3.54,3.54,0,0,0,2.15.72A3.62,3.62,0,0,0,194,59.15a.77.77,0,0,1,.59-.26h0a.77.77,0,0,1,.58.26,3.61,3.61,0,0,0,5.41,0,.79.79,0,0,1,.59-.26h0a.75.75,0,0,1,.58.26,3.62,3.62,0,0,0,5.42,0,.79.79,0,0,1,1.17,0,3.61,3.61,0,0,0,5.41,0,.77.77,0,0,1,.58-.26h0a.77.77,0,0,1,.59.26,3.64,3.64,0,0,0,2.71,1.22,3.6,3.6,0,0,0,2.16-.72.78.78,0,0,1,.93,1.26A5.14,5.14,0,0,1,217.65,61.93Z"/><path class="cls-2" d="M221,53.57a.78.78,0,0,1-.78-.78,15.71,15.71,0,0,0-31.42,0,.78.78,0,1,1-1.56,0,17.27,17.27,0,0,1,34.54,0A.78.78,0,0,1,221,53.57Z"/><path class="cls-2" d="M217.65,65.33a5.21,5.21,0,0,1-3.3-1.18,5.18,5.18,0,0,1-6.58,0,5.18,5.18,0,0,1-6.58,0,5.18,5.18,0,0,1-6.58,0,5.17,5.17,0,0,1-4.08,1.12.77.77,0,0,1-.65-.89.78.78,0,0,1,.89-.66A3.58,3.58,0,0,0,194,62.55a.77.77,0,0,1,1.17,0,3.61,3.61,0,0,0,5.41,0,.8.8,0,0,1,.59-.27h0a.76.76,0,0,1,.58.27,3.62,3.62,0,0,0,5.42,0,.77.77,0,0,1,1.17,0,3.61,3.61,0,0,0,5.41,0,.77.77,0,0,1,1.17,0,3.52,3.52,0,0,0,3.26,1.17.78.78,0,0,1,.23,1.55A5.22,5.22,0,0,1,217.65,65.33Z"/><path class="cls-2" d="M217.65,61.93a5.21,5.21,0,0,1-3.3-1.18,5.18,5.18,0,0,1-6.58,0,5.18,5.18,0,0,1-6.58,0,5.18,5.18,0,0,1-6.58,0,5.2,5.2,0,0,1-6.39.16.79.79,0,0,1-.16-1.1.8.8,0,0,1,1.1-.16,3.54,3.54,0,0,0,2.15.72A3.62,3.62,0,0,0,194,59.15a.77.77,0,0,1,.59-.26h0a.77.77,0,0,1,.58.26,3.61,3.61,0,0,0,5.41,0,.79.79,0,0,1,.59-.26h0a.75.75,0,0,1,.58.26,3.62,3.62,0,0,0,5.42,0,.79.79,0,0,1,1.17,0,3.61,3.61,0,0,0,5.41,0,.77.77,0,0,1,.58-.26h0a.77.77,0,0,1,.59.26,3.64,3.64,0,0,0,2.71,1.22,3.6,3.6,0,0,0,2.16-.72.78.78,0,0,1,.93,1.26A5.14,5.14,0,0,1,217.65,61.93Z"/><path class="cls-2" d="M204.48,68.73a5.22,5.22,0,0,1-3.29-1.18,5.18,5.18,0,0,1-6.58,0,5.58,5.58,0,0,1-1.09.69.79.79,0,0,1-1-.38.78.78,0,0,1,.37-1A3.58,3.58,0,0,0,194,66a.78.78,0,0,1,.59-.27h0a.78.78,0,0,1,.58.27,3.61,3.61,0,0,0,5.41,0,.8.8,0,0,1,.59-.27h0a.76.76,0,0,1,.58.27,3.62,3.62,0,0,0,5.42,0,.78.78,0,0,1,.58-.27h0a.78.78,0,0,1,.59.27,3.61,3.61,0,0,0,5.41,0,.78.78,0,0,1,.59-.27h0a.78.78,0,0,1,.58.27,3.58,3.58,0,0,0,1.17.87.78.78,0,0,1,.37,1,.79.79,0,0,1-1,.38,5.9,5.9,0,0,1-1.09-.69,5.18,5.18,0,0,1-6.58,0A5.22,5.22,0,0,1,204.48,68.73Z"/><path class="cls-2" d="M217.65,65.33a5.21,5.21,0,0,1-3.3-1.18,5.18,5.18,0,0,1-6.58,0,5.18,5.18,0,0,1-6.58,0,5.18,5.18,0,0,1-6.58,0,5.17,5.17,0,0,1-4.08,1.12.77.77,0,0,1-.65-.89.78.78,0,0,1,.89-.66A3.58,3.58,0,0,0,194,62.55a.77.77,0,0,1,1.17,0,3.61,3.61,0,0,0,5.41,0,.8.8,0,0,1,.59-.27h0a.76.76,0,0,1,.58.27,3.62,3.62,0,0,0,5.42,0,.77.77,0,0,1,1.17,0,3.61,3.61,0,0,0,5.41,0,.77.77,0,0,1,1.17,0,3.52,3.52,0,0,0,3.26,1.17.78.78,0,0,1,.23,1.55A5.22,5.22,0,0,1,217.65,65.33Z"/><path class="cls-2" d="M176.22,82.63a3.52,3.52,0,0,1-1.15-.49l.57-1.3a3.77,3.77,0,0,0,1,.45,3.67,3.67,0,0,0,1.08.16c.67,0,1-.16,1-.5a.4.4,0,0,0-.28-.39,4.54,4.54,0,0,0-.93-.27,10.28,10.28,0,0,1-1.17-.33,1.92,1.92,0,0,1-.8-.55,1.49,1.49,0,0,1-.34-1,1.73,1.73,0,0,1,.31-1,2.08,2.08,0,0,1,.93-.72,3.74,3.74,0,0,1,1.51-.27,5.46,5.46,0,0,1,1.2.14,3.47,3.47,0,0,1,1,.4l-.54,1.3a3.57,3.57,0,0,0-1.71-.47,1.47,1.47,0,0,0-.76.15.46.46,0,0,0-.24.4.39.39,0,0,0,.28.37,4.59,4.59,0,0,0,.91.26,9.38,9.38,0,0,1,1.17.32,2.12,2.12,0,0,1,.81.55,1.47,1.47,0,0,1,.34,1,1.74,1.74,0,0,1-.31,1,2.1,2.1,0,0,1-.93.72,3.72,3.72,0,0,1-1.5.27A5.47,5.47,0,0,1,176.22,82.63Z"/><path class="cls-2" d="M182.11,82.06a2.85,2.85,0,0,1-.77-2.13V76.5h1.76v3.38c0,1,.39,1.49,1.17,1.49s1.17-.5,1.17-1.49V76.5h1.73v3.43a2.85,2.85,0,0,1-.77,2.13,3.41,3.41,0,0,1-4.29,0Z"/><path class="cls-2" d="M194.42,76.5v6.19H193l-2.74-3.3v3.3h-1.72V76.5H190l2.73,3.3V76.5Z"/><path class="cls-2" d="M201.72,76.5v6.19h-1.44l-2.74-3.3v3.3h-1.71V76.5h1.44L200,79.8V76.5Z"/><path class="cls-2" d="M206.45,80.47v2.22H204.7V80.44l-2.37-3.94h1.85L205.65,79l1.47-2.46h1.7Z"/><path class="cls-2" d="M216.47,76.77a2.11,2.11,0,0,1,1.3,2,2.18,2.18,0,0,1-.34,1.21,2.15,2.15,0,0,1-1,.79,3.46,3.46,0,0,1-1.46.28h-1.08v1.62h-1.75V76.5H215A3.62,3.62,0,0,1,216.47,76.77Zm-.75,2.69a1,1,0,0,0,0-1.34,1.19,1.19,0,0,0-.81-.24h-1v1.81h1A1.24,1.24,0,0,0,215.72,79.46Z"/><path class="cls-2" d="M218.78,76.5h1.76v6.19h-1.76Z"/><path class="cls-2" d="M223.27,77.89h-1.9V76.5h5.55v1.39H225v4.8h-1.76Z"/><path class="cls-2" d="M231.59,81.49H229l-.48,1.2h-1.79l2.74-6.19h1.72l2.75,6.19h-1.83Zm-.52-1.29-.79-2-.8,2Z"/></svg>