<?xml version="1.0" encoding="UTF-8" standalone="no" ?>
<!DOCTYPE svg PUBLIC "-//W3C//DTD SVG 1.1//EN" "http://www.w3.org/Graphics/SVG/1.1/DTD/svg11.dtd">
<svg xmlns="http://www.w3.org/2000/svg" xmlns:xlink="http://www.w3.org/1999/xlink" version="1.1" width="82" height="100" viewBox="220 187 82 100" xml:space="preserve">
<desc>Created with Fabric.js 4.6.0</desc>
<defs>
</defs>
<g transform="matrix(1.43 0 0 1.43 260.52 228.61)" id="ON5On4D4luvCsp8Pfn1cf"  >
<path style="stroke: none; stroke-width: 1; stroke-dasharray: none; stroke-linecap: butt; stroke-dashoffset: 0; stroke-linejoin: miter; stroke-miterlimit: 4; fill: rgb(227,6,19); fill-rule: nonzero; opacity: 1;" vector-effect="non-scaling-stroke"  transform=" translate(-52.61, -46.95)" d="M 44 71.75 C 43.879665841660284 71.75200920335405 43.76030491410049 71.72813701784209 43.65 71.68 C 43.309999999999995 71.52000000000001 35.4 67.76 32.73 60.41000000000001 C 31.356830133396652 56.43608172511081 31.67495406811619 52.072722756855356 33.61 48.34000000000002 C 33.76552930512123 48.0103452878084 34.11999405088201 47.82292714637166 34.48 47.88000000000001 C 34.83907466960932 47.93226089302976 35.122578241823504 48.21171441421232 35.18 48.57000000000001 C 35.29399242799272 49.34833962610358 35.47807403887317 50.114788515042186 35.730000000000004 50.860000000000014 L 35.73 50.45000000000001 C 35.73 47.67000000000001 37.059999999999995 43.360000000000014 43.059999999999995 38.62000000000001 C 54.49999999999999 29.62000000000001 50.709999999999994 24.05000000000001 50.239999999999995 23.46000000000001 C 50.02035158643641 23.15756901993336 50.02995083810233 22.74562994481179 50.26344804509253 22.45375843607404 C 50.496945252082725 22.16188692733629 50.896729879884425 22.062096153123345 51.239999999999995 22.21000000000001 C 54.67695171972414 24.120818733246182 57.66412368361347 26.74652924945027 60 29.910000000000004 C 63.63151174633061 34.77654445411885 64.91378285728416 41.00471842160752 63.5 46.91 C 65.53508393600254 45.87241593432562 66.63662866567081 43.61220934085813 66.2 41.37 C 66.11170625958036 41.003231420338246 66.28504148959351 40.623544726023724 66.62 40.449999999999996 C 66.95194699766327 40.26510499129079 67.36779917730618 40.33579986183009 67.62 40.62 C 67.88000000000001 40.9 74 47.62 73.28 56.41 C 72.84 62 69.69 67.11 64 71.58 C 63.705234881749014 71.80676923683883 63.294765118250986 71.80676923683883 63 71.58 C 62.70234245068905 71.37268855160715 62.57626082958694 70.99444368830083 62.69 70.64999999999999 C 64.93 63.6 58.3 57.09 58.23 57 C 57.989999999999995 56.78 53.059999999999995 52 53.449999999999996 47.21 C 51.11 49.14 47.97 53.86 49.339999999999996 61.39 C 49.399341250390506 61.7043009146511 49.270512542690675 62.02442073378402 49.01 62.21 C 48.74301400354035 62.38582436861387 48.39698599645964 62.38582436861387 48.129999999999995 62.21 C 46.90704688174387 61.3990742826557 46.03554844684171 60.15611749845097 45.69 58.730000000000004 C 44.47 60.59 42.809999999999995 64.52000000000001 44.739999999999995 70.60000000000001 C 44.841136073781165 70.91190142212025 44.74674584441078 71.2540660035879 44.49999999999999 71.47000000000001 C 44.37130685824388 71.61905687499731 44.19433516481301 71.71816102331859 44 71.75 Z M 34.14 51.42 C 32.660000000000004 56.21 33.67 60.67 37.14 64.69 C 38.72554616164932 66.47838858914113 40.57323582680266 68.01588217912274 42.62000000000002 69.25 C 40.760000000000005 60.84 45.34 56.54 45.550000000000004 56.35 C 45.78095925427635 56.14158714525728 46.10907124609651 56.07982488797349 46.400000000000006 56.190000000000005 C 46.69568326668495 56.29754385432236 46.90233791097164 56.56658480631824 46.93000000000001 56.88 C 47.00204967939202 57.47335072723482 47.13955353775475 58.05690368711566 47.34 58.620000000000005 C 47 50 52.24 45.48 54.46 44.74 C 54.76802835294382 44.64866428738534 55.101102694582735 44.7433032930586 55.31508318482033 44.982961442124704 C 55.52906367505792 45.222619591190806 55.58551206939574 45.56424604981149 55.46 45.86 C 53.54 50.26 59.29 55.78 59.35 55.86 C 59.63 56.13 65.43 61.8 64.72 68.8 C 68.92999999999999 65.02 71.25 60.8 71.63 56.309999999999995 C 72.08 50.83 69.52 46.089999999999996 67.83 43.61 C 67.49 45.48 66.28999999999999 47.879999999999995 62.57 49.15 C 62.279972700633124 49.24903120122242 61.95897509835515 49.18018455648198 61.735068825082486 48.970926357161744 C 61.511162551809825 48.7616681578415 61.42078800180068 48.446054847173414 61.5 48.15 C 65.11 35.52 57 28 52.69 25.05 C 53.349999999999994 28 52.58 33.16 44.05 39.92 C 33.76 48.06 38.3 54.3 38.49 54.56 C 38.73065507127981 54.859478024524904 38.731119900444554 55.28589266952301 38.49111831467253 55.58589465173803 C 38.25111672890051 55.88589663395305 37.83500040542718 55.97904635684069 37.49 55.81 C 37.38 55.76 35.34 54.77 34.14 51.42 Z" stroke-linecap="round" />
</g>
<g transform="matrix(1.43 0 0 1.43 230.29 275.69)" id="m6VT8BkbuzI5-TgFzg3Uw"  >
<path style="stroke: none; stroke-width: 1; stroke-dasharray: none; stroke-linecap: butt; stroke-dashoffset: 0; stroke-linejoin: miter; stroke-miterlimit: 4; fill: rgb(227,6,19); fill-rule: nonzero; opacity: 1;" vector-effect="non-scaling-stroke"  transform=" translate(-31.48, -79.87)" d="M 32.74 83.07 L 31.5 81.28 L 30.13 81.28 L 30.13 83.07000000000001 L 28.64 83.07000000000001 L 28.64 76.64 L 31.42 76.64 C 31.93091148879844 76.62650802646623 32.43883992480182 76.72195766544672 32.910000000000004 76.92 C 33.3159958056458 77.08534514078637 33.66395140049785 77.36718917261655 33.910000000000004 77.73 C 34.13508351726589 78.11399881338582 34.242847286909836 78.55548264386263 34.22 79 C 34.22969604801388 79.43900001335741 34.10780066811558 79.87085793071138 33.87 80.24 C 33.62703813318819 80.60101702542998 33.277447980982664 80.87719324567236 32.87 81.03 L 34.32 83.1 Z M 32.36 78.13999999999999 C 32.069357873023804 77.93239879798801 31.71661638341891 77.8301037660026 31.36 77.84999999999998 L 30.13 77.84999999999998 L 30.13 80.08999999999997 L 31.34 80.08999999999997 C 31.69717308493812 80.11494786749331 32.05159019892198 80.01216690443799 32.34 79.79999999999997 C 32.58172380547199 79.59451784217744 32.71160121977378 79.2865228311189 32.690000000000005 78.96999999999997 C 32.71653463385488 78.65684896880336 32.59431213653213 78.34944086947647 32.36 78.14 Z" stroke-linecap="round" />
</g>
<g transform="matrix(1.43 0 0 1.43 240.13 275.67)" id="5f4rm3hPQQdPFdNvpVIJa"  >
<path style="stroke: none; stroke-width: 1; stroke-dasharray: none; stroke-linecap: butt; stroke-dashoffset: 0; stroke-linejoin: miter; stroke-miterlimit: 4; fill: rgb(227,6,19); fill-rule: nonzero; opacity: 1;" vector-effect="non-scaling-stroke"  transform=" translate(-38.36, -79.85)" d="M 40.86 81.88 L 40.86 83.07 L 35.86 83.07 L 35.86 76.64 L 40.73 76.64 L 40.73 77.83 L 37.36 77.83 L 37.36 79.23 L 40.36 79.23 L 40.36 80.39 L 37.36 80.39 L 37.36 81.88 Z" stroke-linecap="round" />
</g>
<g transform="matrix(1.43 0 0 1.43 250.74 275.67)" id="tBEk-x--uJVnjyjVr1_zp"  >
<path style="stroke: none; stroke-width: 1; stroke-dasharray: none; stroke-linecap: butt; stroke-dashoffset: 0; stroke-linejoin: miter; stroke-miterlimit: 4; fill: rgb(227,6,19); fill-rule: nonzero; opacity: 1;" vector-effect="non-scaling-stroke"  transform=" translate(-45.77, -79.86)" d="M 42.54 76.64 L 45.46 76.64 C 46.09978670417194 76.6234129334169 46.73421346439136 76.76058628697785 47.31 77.04 C 47.82795263304451 77.28196486781815 48.262835444590934 77.67161986696374 48.56 78.16000000000001 C 49.159444483408926 79.21050139630766 49.159444483408926 80.49949860369236 48.56 81.55000000000001 C 48.262835444590934 82.03838013303628 47.82795263304451 82.42803513218188 47.31 82.67000000000002 C 46.73421346439136 82.94941371302217 46.09978670417194 83.08658706658312 45.46 83.07000000000002 L 42.54 83.07000000000002 Z M 45.39 81.85 C 45.95388672636359 81.87617436943343 46.505942032294016 81.68259653488639 46.93 81.30999999999999 C 47.69098749406318 80.48925308405168 47.69098749406318 79.2207469159483 46.93 78.39999999999999 C 46.505942032294016 78.0274034651136 45.95388672636359 77.83382563056655 45.39 77.85999999999999 L 44 77.85999999999999 L 44 81.85999999999999 Z" stroke-linecap="round" />
</g>
<g transform="matrix(1.43 0 0 1.43 266.09 275.66)" id="Ft7fuTWaVupO_YjYCLfXM"  >
<path style="stroke: none; stroke-width: 1; stroke-dasharray: none; stroke-linecap: butt; stroke-dashoffset: 0; stroke-linejoin: miter; stroke-miterlimit: 4; fill: rgb(227,6,19); fill-rule: nonzero; opacity: 1;" vector-effect="non-scaling-stroke"  transform=" translate(-56.5, -79.84)" d="M 58 76.92 C 58.40599580564579 77.08534514078637 58.75395140049785 77.36718917261655 59 77.73 C 59.22265854991008 78.11435024950558 59.32375839559029 78.5570978495534 59.29 79 C 59.30728398818203 79.86712505558053 58.797079669283725 80.65813950348488 58 81 C 57.528839924801815 81.19804233455328 57.02091148879843 81.29349197353378 56.51 81.28 L 55.2 81.28 L 55.2 83.05 L 53.71 83.05 L 53.71 76.64 L 56.49 76.64 C 57.007613880180294 76.62363755012674 57.52266508697048 76.71914373416732 58 76.92 Z M 57.45 79.8 C 57.69172380547199 79.59451784217747 57.82160121977378 79.28652283111893 57.800000000000004 78.97 C 57.82160121977378 78.65347716888107 57.69172380547199 78.34548215782253 57.45 78.14 C 57.15935787302381 77.93239879798803 56.80661638341891 77.83010376600261 56.45 77.85 L 55.2 77.85 L 55.2 80.08 L 56.410000000000004 80.08 C 56.77215182711057 80.10745543674253 57.132621100989425 80.00850308705029 57.43 79.8 Z" stroke-linecap="round" />
</g>
<g transform="matrix(1.43 0 0 1.43 273.34 275.67)" id="P1iXU1ilGpOcRABESeCFo"  >
<path style="stroke: none; stroke-width: 1; stroke-dasharray: none; stroke-linecap: butt; stroke-dashoffset: 0; stroke-linejoin: miter; stroke-miterlimit: 4; fill: rgb(227,6,19); fill-rule: nonzero; opacity: 1;" vector-effect="non-scaling-stroke"  transform=" translate(-61.58, -79.85)" d="M 60.83 76.64 L 62.32 76.64 L 62.32 83.07 L 60.83 83.07 Z" stroke-linecap="round" />
</g>
<g transform="matrix(1.43 0 0 1.43 280.26 275.67)" id="ir5FAA9yj5aeCkg0r71Qk"  >
<path style="stroke: none; stroke-width: 1; stroke-dasharray: none; stroke-linecap: butt; stroke-dashoffset: 0; stroke-linejoin: miter; stroke-miterlimit: 4; fill: rgb(227,6,19); fill-rule: nonzero; opacity: 1;" vector-effect="non-scaling-stroke"  transform=" translate(-66.41, -79.85)" d="M 65.67 77.85 L 63.61 77.85 L 63.61 76.64 L 69.22 76.64 L 69.22 77.85 L 67.16 77.85 L 67.16 83.07 L 65.67 83.07 Z" stroke-linecap="round" />
</g>
<g transform="matrix(1.43 0 0 1.43 289.6 275.67)" id="99ZOBXpaHz_sCt0lGSLHl"  >
<path style="stroke: none; stroke-width: 1; stroke-dasharray: none; stroke-linecap: butt; stroke-dashoffset: 0; stroke-linejoin: miter; stroke-miterlimit: 4; fill: rgb(227,6,19); fill-rule: nonzero; opacity: 1;" vector-effect="non-scaling-stroke"  transform=" translate(-72.95, -79.85)" d="M 74.42 81.69 L 71.42 81.69 L 70.85000000000001 83.07 L 69.34 83.07 L 72.21000000000001 76.63999999999999 L 73.68 76.63999999999999 L 76.55000000000001 83.07 L 75 83.07 Z M 74 80.56 L 73 78.10000000000001 L 72 80.56 Z" stroke-linecap="round" />
</g>
</svg>